%TF.GenerationSoftware,KiCad,Pcbnew,9.0.6*%
%TF.CreationDate,2025-12-15T15:35:09+00:00*%
%TF.ProjectId,_2 Blaster,a3322042-6c61-4737-9465-722e6b696361,rev?*%
%TF.SameCoordinates,Original*%
%TF.FileFunction,Legend,Top*%
%TF.FilePolarity,Positive*%
%FSLAX46Y46*%
G04 Gerber Fmt 4.6, Leading zero omitted, Abs format (unit mm)*
G04 Created by KiCad (PCBNEW 9.0.6) date 2025-12-15 15:35:09*
%MOMM*%
%LPD*%
G01*
G04 APERTURE LIST*
%ADD10C,0.150000*%
%ADD11C,0.254000*%
%ADD12C,0.120000*%
%ADD13C,0.200000*%
%ADD14C,0.100000*%
G04 APERTURE END LIST*
D10*
X97645180Y-101619048D02*
X98645180Y-101619048D01*
X98645180Y-101619048D02*
X98645180Y-101857143D01*
X98645180Y-101857143D02*
X98597561Y-102000000D01*
X98597561Y-102000000D02*
X98502323Y-102095238D01*
X98502323Y-102095238D02*
X98407085Y-102142857D01*
X98407085Y-102142857D02*
X98216609Y-102190476D01*
X98216609Y-102190476D02*
X98073752Y-102190476D01*
X98073752Y-102190476D02*
X97883276Y-102142857D01*
X97883276Y-102142857D02*
X97788038Y-102095238D01*
X97788038Y-102095238D02*
X97692800Y-102000000D01*
X97692800Y-102000000D02*
X97645180Y-101857143D01*
X97645180Y-101857143D02*
X97645180Y-101619048D01*
X98026133Y-102619048D02*
X98026133Y-103380953D01*
X101179980Y-100961905D02*
X101179980Y-101580952D01*
X101179980Y-101580952D02*
X100799028Y-101247619D01*
X100799028Y-101247619D02*
X100799028Y-101390476D01*
X100799028Y-101390476D02*
X100751409Y-101485714D01*
X100751409Y-101485714D02*
X100703790Y-101533333D01*
X100703790Y-101533333D02*
X100608552Y-101580952D01*
X100608552Y-101580952D02*
X100370457Y-101580952D01*
X100370457Y-101580952D02*
X100275219Y-101533333D01*
X100275219Y-101533333D02*
X100227600Y-101485714D01*
X100227600Y-101485714D02*
X100179980Y-101390476D01*
X100179980Y-101390476D02*
X100179980Y-101104762D01*
X100179980Y-101104762D02*
X100227600Y-101009524D01*
X100227600Y-101009524D02*
X100275219Y-100961905D01*
X101179980Y-101866667D02*
X100179980Y-102200000D01*
X100179980Y-102200000D02*
X101179980Y-102533333D01*
X101179980Y-102771429D02*
X101179980Y-103390476D01*
X101179980Y-103390476D02*
X100799028Y-103057143D01*
X100799028Y-103057143D02*
X100799028Y-103200000D01*
X100799028Y-103200000D02*
X100751409Y-103295238D01*
X100751409Y-103295238D02*
X100703790Y-103342857D01*
X100703790Y-103342857D02*
X100608552Y-103390476D01*
X100608552Y-103390476D02*
X100370457Y-103390476D01*
X100370457Y-103390476D02*
X100275219Y-103342857D01*
X100275219Y-103342857D02*
X100227600Y-103295238D01*
X100227600Y-103295238D02*
X100179980Y-103200000D01*
X100179980Y-103200000D02*
X100179980Y-102914286D01*
X100179980Y-102914286D02*
X100227600Y-102819048D01*
X100227600Y-102819048D02*
X100275219Y-102771429D01*
X106145180Y-101738095D02*
X106145180Y-102309523D01*
X105145180Y-102023809D02*
X106145180Y-102023809D01*
X106145180Y-102547619D02*
X105145180Y-103214285D01*
X106145180Y-103214285D02*
X105145180Y-102547619D01*
X102545180Y-102433333D02*
X103021371Y-102100000D01*
X102545180Y-101861905D02*
X103545180Y-101861905D01*
X103545180Y-101861905D02*
X103545180Y-102242857D01*
X103545180Y-102242857D02*
X103497561Y-102338095D01*
X103497561Y-102338095D02*
X103449942Y-102385714D01*
X103449942Y-102385714D02*
X103354704Y-102433333D01*
X103354704Y-102433333D02*
X103211847Y-102433333D01*
X103211847Y-102433333D02*
X103116609Y-102385714D01*
X103116609Y-102385714D02*
X103068990Y-102338095D01*
X103068990Y-102338095D02*
X103021371Y-102242857D01*
X103021371Y-102242857D02*
X103021371Y-101861905D01*
X103545180Y-102766667D02*
X102545180Y-103433333D01*
X103545180Y-103433333D02*
X102545180Y-102766667D01*
X93297561Y-101338095D02*
X93345180Y-101242857D01*
X93345180Y-101242857D02*
X93345180Y-101100000D01*
X93345180Y-101100000D02*
X93297561Y-100957143D01*
X93297561Y-100957143D02*
X93202323Y-100861905D01*
X93202323Y-100861905D02*
X93107085Y-100814286D01*
X93107085Y-100814286D02*
X92916609Y-100766667D01*
X92916609Y-100766667D02*
X92773752Y-100766667D01*
X92773752Y-100766667D02*
X92583276Y-100814286D01*
X92583276Y-100814286D02*
X92488038Y-100861905D01*
X92488038Y-100861905D02*
X92392800Y-100957143D01*
X92392800Y-100957143D02*
X92345180Y-101100000D01*
X92345180Y-101100000D02*
X92345180Y-101195238D01*
X92345180Y-101195238D02*
X92392800Y-101338095D01*
X92392800Y-101338095D02*
X92440419Y-101385714D01*
X92440419Y-101385714D02*
X92773752Y-101385714D01*
X92773752Y-101385714D02*
X92773752Y-101195238D01*
X92345180Y-101814286D02*
X93345180Y-101814286D01*
X93345180Y-101814286D02*
X92345180Y-102385714D01*
X92345180Y-102385714D02*
X93345180Y-102385714D01*
X92345180Y-102861905D02*
X93345180Y-102861905D01*
X93345180Y-102861905D02*
X93345180Y-103100000D01*
X93345180Y-103100000D02*
X93297561Y-103242857D01*
X93297561Y-103242857D02*
X93202323Y-103338095D01*
X93202323Y-103338095D02*
X93107085Y-103385714D01*
X93107085Y-103385714D02*
X92916609Y-103433333D01*
X92916609Y-103433333D02*
X92773752Y-103433333D01*
X92773752Y-103433333D02*
X92583276Y-103385714D01*
X92583276Y-103385714D02*
X92488038Y-103338095D01*
X92488038Y-103338095D02*
X92392800Y-103242857D01*
X92392800Y-103242857D02*
X92345180Y-103100000D01*
X92345180Y-103100000D02*
X92345180Y-102861905D01*
X95445180Y-101619048D02*
X96445180Y-101619048D01*
X96445180Y-101619048D02*
X96445180Y-101857143D01*
X96445180Y-101857143D02*
X96397561Y-102000000D01*
X96397561Y-102000000D02*
X96302323Y-102095238D01*
X96302323Y-102095238D02*
X96207085Y-102142857D01*
X96207085Y-102142857D02*
X96016609Y-102190476D01*
X96016609Y-102190476D02*
X95873752Y-102190476D01*
X95873752Y-102190476D02*
X95683276Y-102142857D01*
X95683276Y-102142857D02*
X95588038Y-102095238D01*
X95588038Y-102095238D02*
X95492800Y-102000000D01*
X95492800Y-102000000D02*
X95445180Y-101857143D01*
X95445180Y-101857143D02*
X95445180Y-101619048D01*
X95826133Y-102619048D02*
X95826133Y-103380953D01*
X95445180Y-103000000D02*
X96207085Y-103000000D01*
X108397561Y-101238095D02*
X108445180Y-101142857D01*
X108445180Y-101142857D02*
X108445180Y-101000000D01*
X108445180Y-101000000D02*
X108397561Y-100857143D01*
X108397561Y-100857143D02*
X108302323Y-100761905D01*
X108302323Y-100761905D02*
X108207085Y-100714286D01*
X108207085Y-100714286D02*
X108016609Y-100666667D01*
X108016609Y-100666667D02*
X107873752Y-100666667D01*
X107873752Y-100666667D02*
X107683276Y-100714286D01*
X107683276Y-100714286D02*
X107588038Y-100761905D01*
X107588038Y-100761905D02*
X107492800Y-100857143D01*
X107492800Y-100857143D02*
X107445180Y-101000000D01*
X107445180Y-101000000D02*
X107445180Y-101095238D01*
X107445180Y-101095238D02*
X107492800Y-101238095D01*
X107492800Y-101238095D02*
X107540419Y-101285714D01*
X107540419Y-101285714D02*
X107873752Y-101285714D01*
X107873752Y-101285714D02*
X107873752Y-101095238D01*
X107445180Y-101714286D02*
X108445180Y-101714286D01*
X108445180Y-101714286D02*
X107445180Y-102285714D01*
X107445180Y-102285714D02*
X108445180Y-102285714D01*
X107445180Y-102761905D02*
X108445180Y-102761905D01*
X108445180Y-102761905D02*
X108445180Y-103000000D01*
X108445180Y-103000000D02*
X108397561Y-103142857D01*
X108397561Y-103142857D02*
X108302323Y-103238095D01*
X108302323Y-103238095D02*
X108207085Y-103285714D01*
X108207085Y-103285714D02*
X108016609Y-103333333D01*
X108016609Y-103333333D02*
X107873752Y-103333333D01*
X107873752Y-103333333D02*
X107683276Y-103285714D01*
X107683276Y-103285714D02*
X107588038Y-103238095D01*
X107588038Y-103238095D02*
X107492800Y-103142857D01*
X107492800Y-103142857D02*
X107445180Y-103000000D01*
X107445180Y-103000000D02*
X107445180Y-102761905D01*
X114095233Y-84944755D02*
X114047614Y-84992375D01*
X114047614Y-84992375D02*
X113904757Y-85039994D01*
X113904757Y-85039994D02*
X113809519Y-85039994D01*
X113809519Y-85039994D02*
X113666662Y-84992375D01*
X113666662Y-84992375D02*
X113571424Y-84897136D01*
X113571424Y-84897136D02*
X113523805Y-84801898D01*
X113523805Y-84801898D02*
X113476186Y-84611422D01*
X113476186Y-84611422D02*
X113476186Y-84468565D01*
X113476186Y-84468565D02*
X113523805Y-84278089D01*
X113523805Y-84278089D02*
X113571424Y-84182851D01*
X113571424Y-84182851D02*
X113666662Y-84087613D01*
X113666662Y-84087613D02*
X113809519Y-84039994D01*
X113809519Y-84039994D02*
X113904757Y-84039994D01*
X113904757Y-84039994D02*
X114047614Y-84087613D01*
X114047614Y-84087613D02*
X114095233Y-84135232D01*
X114999995Y-84039994D02*
X114523805Y-84039994D01*
X114523805Y-84039994D02*
X114476186Y-84516184D01*
X114476186Y-84516184D02*
X114523805Y-84468565D01*
X114523805Y-84468565D02*
X114619043Y-84420946D01*
X114619043Y-84420946D02*
X114857138Y-84420946D01*
X114857138Y-84420946D02*
X114952376Y-84468565D01*
X114952376Y-84468565D02*
X114999995Y-84516184D01*
X114999995Y-84516184D02*
X115047614Y-84611422D01*
X115047614Y-84611422D02*
X115047614Y-84849517D01*
X115047614Y-84849517D02*
X114999995Y-84944755D01*
X114999995Y-84944755D02*
X114952376Y-84992375D01*
X114952376Y-84992375D02*
X114857138Y-85039994D01*
X114857138Y-85039994D02*
X114619043Y-85039994D01*
X114619043Y-85039994D02*
X114523805Y-84992375D01*
X114523805Y-84992375D02*
X114476186Y-84944755D01*
X116968608Y-95222219D02*
X116635275Y-94746028D01*
X116397180Y-95222219D02*
X116397180Y-94222219D01*
X116397180Y-94222219D02*
X116778132Y-94222219D01*
X116778132Y-94222219D02*
X116873370Y-94269838D01*
X116873370Y-94269838D02*
X116920989Y-94317457D01*
X116920989Y-94317457D02*
X116968608Y-94412695D01*
X116968608Y-94412695D02*
X116968608Y-94555552D01*
X116968608Y-94555552D02*
X116920989Y-94650790D01*
X116920989Y-94650790D02*
X116873370Y-94698409D01*
X116873370Y-94698409D02*
X116778132Y-94746028D01*
X116778132Y-94746028D02*
X116397180Y-94746028D01*
X117825751Y-94222219D02*
X117635275Y-94222219D01*
X117635275Y-94222219D02*
X117540037Y-94269838D01*
X117540037Y-94269838D02*
X117492418Y-94317457D01*
X117492418Y-94317457D02*
X117397180Y-94460314D01*
X117397180Y-94460314D02*
X117349561Y-94650790D01*
X117349561Y-94650790D02*
X117349561Y-95031742D01*
X117349561Y-95031742D02*
X117397180Y-95126980D01*
X117397180Y-95126980D02*
X117444799Y-95174600D01*
X117444799Y-95174600D02*
X117540037Y-95222219D01*
X117540037Y-95222219D02*
X117730513Y-95222219D01*
X117730513Y-95222219D02*
X117825751Y-95174600D01*
X117825751Y-95174600D02*
X117873370Y-95126980D01*
X117873370Y-95126980D02*
X117920989Y-95031742D01*
X117920989Y-95031742D02*
X117920989Y-94793647D01*
X117920989Y-94793647D02*
X117873370Y-94698409D01*
X117873370Y-94698409D02*
X117825751Y-94650790D01*
X117825751Y-94650790D02*
X117730513Y-94603171D01*
X117730513Y-94603171D02*
X117540037Y-94603171D01*
X117540037Y-94603171D02*
X117444799Y-94650790D01*
X117444799Y-94650790D02*
X117397180Y-94698409D01*
X117397180Y-94698409D02*
X117349561Y-94793647D01*
X116990833Y-93352144D02*
X116657500Y-92875953D01*
X116419405Y-93352144D02*
X116419405Y-92352144D01*
X116419405Y-92352144D02*
X116800357Y-92352144D01*
X116800357Y-92352144D02*
X116895595Y-92399763D01*
X116895595Y-92399763D02*
X116943214Y-92447382D01*
X116943214Y-92447382D02*
X116990833Y-92542620D01*
X116990833Y-92542620D02*
X116990833Y-92685477D01*
X116990833Y-92685477D02*
X116943214Y-92780715D01*
X116943214Y-92780715D02*
X116895595Y-92828334D01*
X116895595Y-92828334D02*
X116800357Y-92875953D01*
X116800357Y-92875953D02*
X116419405Y-92875953D01*
X117895595Y-92352144D02*
X117419405Y-92352144D01*
X117419405Y-92352144D02*
X117371786Y-92828334D01*
X117371786Y-92828334D02*
X117419405Y-92780715D01*
X117419405Y-92780715D02*
X117514643Y-92733096D01*
X117514643Y-92733096D02*
X117752738Y-92733096D01*
X117752738Y-92733096D02*
X117847976Y-92780715D01*
X117847976Y-92780715D02*
X117895595Y-92828334D01*
X117895595Y-92828334D02*
X117943214Y-92923572D01*
X117943214Y-92923572D02*
X117943214Y-93161667D01*
X117943214Y-93161667D02*
X117895595Y-93256905D01*
X117895595Y-93256905D02*
X117847976Y-93304525D01*
X117847976Y-93304525D02*
X117752738Y-93352144D01*
X117752738Y-93352144D02*
X117514643Y-93352144D01*
X117514643Y-93352144D02*
X117419405Y-93304525D01*
X117419405Y-93304525D02*
X117371786Y-93256905D01*
D11*
X130741568Y-86287731D02*
X129471568Y-86287731D01*
X129471568Y-86287731D02*
X129471568Y-85985350D01*
X129471568Y-85985350D02*
X129532044Y-85803921D01*
X129532044Y-85803921D02*
X129652996Y-85682969D01*
X129652996Y-85682969D02*
X129773949Y-85622492D01*
X129773949Y-85622492D02*
X130015853Y-85562016D01*
X130015853Y-85562016D02*
X130197282Y-85562016D01*
X130197282Y-85562016D02*
X130439187Y-85622492D01*
X130439187Y-85622492D02*
X130560139Y-85682969D01*
X130560139Y-85682969D02*
X130681092Y-85803921D01*
X130681092Y-85803921D02*
X130741568Y-85985350D01*
X130741568Y-85985350D02*
X130741568Y-86287731D01*
X130741568Y-84352492D02*
X130741568Y-85078207D01*
X130741568Y-84715350D02*
X129471568Y-84715350D01*
X129471568Y-84715350D02*
X129652996Y-84836302D01*
X129652996Y-84836302D02*
X129773949Y-84957254D01*
X129773949Y-84957254D02*
X129834425Y-85078207D01*
D10*
X116968608Y-87405369D02*
X116635275Y-86929178D01*
X116397180Y-87405369D02*
X116397180Y-86405369D01*
X116397180Y-86405369D02*
X116778132Y-86405369D01*
X116778132Y-86405369D02*
X116873370Y-86452988D01*
X116873370Y-86452988D02*
X116920989Y-86500607D01*
X116920989Y-86500607D02*
X116968608Y-86595845D01*
X116968608Y-86595845D02*
X116968608Y-86738702D01*
X116968608Y-86738702D02*
X116920989Y-86833940D01*
X116920989Y-86833940D02*
X116873370Y-86881559D01*
X116873370Y-86881559D02*
X116778132Y-86929178D01*
X116778132Y-86929178D02*
X116397180Y-86929178D01*
X117301942Y-86405369D02*
X117920989Y-86405369D01*
X117920989Y-86405369D02*
X117587656Y-86786321D01*
X117587656Y-86786321D02*
X117730513Y-86786321D01*
X117730513Y-86786321D02*
X117825751Y-86833940D01*
X117825751Y-86833940D02*
X117873370Y-86881559D01*
X117873370Y-86881559D02*
X117920989Y-86976797D01*
X117920989Y-86976797D02*
X117920989Y-87214892D01*
X117920989Y-87214892D02*
X117873370Y-87310130D01*
X117873370Y-87310130D02*
X117825751Y-87357750D01*
X117825751Y-87357750D02*
X117730513Y-87405369D01*
X117730513Y-87405369D02*
X117444799Y-87405369D01*
X117444799Y-87405369D02*
X117349561Y-87357750D01*
X117349561Y-87357750D02*
X117301942Y-87310130D01*
X116949558Y-101188044D02*
X116616225Y-100711853D01*
X116378130Y-101188044D02*
X116378130Y-100188044D01*
X116378130Y-100188044D02*
X116759082Y-100188044D01*
X116759082Y-100188044D02*
X116854320Y-100235663D01*
X116854320Y-100235663D02*
X116901939Y-100283282D01*
X116901939Y-100283282D02*
X116949558Y-100378520D01*
X116949558Y-100378520D02*
X116949558Y-100521377D01*
X116949558Y-100521377D02*
X116901939Y-100616615D01*
X116901939Y-100616615D02*
X116854320Y-100664234D01*
X116854320Y-100664234D02*
X116759082Y-100711853D01*
X116759082Y-100711853D02*
X116378130Y-100711853D01*
X117425749Y-101188044D02*
X117616225Y-101188044D01*
X117616225Y-101188044D02*
X117711463Y-101140425D01*
X117711463Y-101140425D02*
X117759082Y-101092805D01*
X117759082Y-101092805D02*
X117854320Y-100949948D01*
X117854320Y-100949948D02*
X117901939Y-100759472D01*
X117901939Y-100759472D02*
X117901939Y-100378520D01*
X117901939Y-100378520D02*
X117854320Y-100283282D01*
X117854320Y-100283282D02*
X117806701Y-100235663D01*
X117806701Y-100235663D02*
X117711463Y-100188044D01*
X117711463Y-100188044D02*
X117520987Y-100188044D01*
X117520987Y-100188044D02*
X117425749Y-100235663D01*
X117425749Y-100235663D02*
X117378130Y-100283282D01*
X117378130Y-100283282D02*
X117330511Y-100378520D01*
X117330511Y-100378520D02*
X117330511Y-100616615D01*
X117330511Y-100616615D02*
X117378130Y-100711853D01*
X117378130Y-100711853D02*
X117425749Y-100759472D01*
X117425749Y-100759472D02*
X117520987Y-100807091D01*
X117520987Y-100807091D02*
X117711463Y-100807091D01*
X117711463Y-100807091D02*
X117806701Y-100759472D01*
X117806701Y-100759472D02*
X117854320Y-100711853D01*
X117854320Y-100711853D02*
X117901939Y-100616615D01*
X128772069Y-96739532D02*
X129486354Y-96739532D01*
X129486354Y-96739532D02*
X129629211Y-96787151D01*
X129629211Y-96787151D02*
X129724450Y-96882389D01*
X129724450Y-96882389D02*
X129772069Y-97025246D01*
X129772069Y-97025246D02*
X129772069Y-97120484D01*
X128772069Y-96406198D02*
X128772069Y-95834770D01*
X129772069Y-96120484D02*
X128772069Y-96120484D01*
X129486354Y-95549055D02*
X129486354Y-95072865D01*
X129772069Y-95644293D02*
X128772069Y-95310960D01*
X128772069Y-95310960D02*
X129772069Y-94977627D01*
X128819688Y-94120484D02*
X128772069Y-94215722D01*
X128772069Y-94215722D02*
X128772069Y-94358579D01*
X128772069Y-94358579D02*
X128819688Y-94501436D01*
X128819688Y-94501436D02*
X128914926Y-94596674D01*
X128914926Y-94596674D02*
X129010164Y-94644293D01*
X129010164Y-94644293D02*
X129200640Y-94691912D01*
X129200640Y-94691912D02*
X129343497Y-94691912D01*
X129343497Y-94691912D02*
X129533973Y-94644293D01*
X129533973Y-94644293D02*
X129629211Y-94596674D01*
X129629211Y-94596674D02*
X129724450Y-94501436D01*
X129724450Y-94501436D02*
X129772069Y-94358579D01*
X129772069Y-94358579D02*
X129772069Y-94263341D01*
X129772069Y-94263341D02*
X129724450Y-94120484D01*
X129724450Y-94120484D02*
X129676830Y-94072865D01*
X129676830Y-94072865D02*
X129343497Y-94072865D01*
X129343497Y-94072865D02*
X129343497Y-94263341D01*
X129772069Y-93120484D02*
X129772069Y-93691912D01*
X129772069Y-93406198D02*
X128772069Y-93406198D01*
X128772069Y-93406198D02*
X128914926Y-93501436D01*
X128914926Y-93501436D02*
X129010164Y-93596674D01*
X129010164Y-93596674D02*
X129057783Y-93691912D01*
X116905108Y-99108419D02*
X116571775Y-98632228D01*
X116333680Y-99108419D02*
X116333680Y-98108419D01*
X116333680Y-98108419D02*
X116714632Y-98108419D01*
X116714632Y-98108419D02*
X116809870Y-98156038D01*
X116809870Y-98156038D02*
X116857489Y-98203657D01*
X116857489Y-98203657D02*
X116905108Y-98298895D01*
X116905108Y-98298895D02*
X116905108Y-98441752D01*
X116905108Y-98441752D02*
X116857489Y-98536990D01*
X116857489Y-98536990D02*
X116809870Y-98584609D01*
X116809870Y-98584609D02*
X116714632Y-98632228D01*
X116714632Y-98632228D02*
X116333680Y-98632228D01*
X117476537Y-98536990D02*
X117381299Y-98489371D01*
X117381299Y-98489371D02*
X117333680Y-98441752D01*
X117333680Y-98441752D02*
X117286061Y-98346514D01*
X117286061Y-98346514D02*
X117286061Y-98298895D01*
X117286061Y-98298895D02*
X117333680Y-98203657D01*
X117333680Y-98203657D02*
X117381299Y-98156038D01*
X117381299Y-98156038D02*
X117476537Y-98108419D01*
X117476537Y-98108419D02*
X117667013Y-98108419D01*
X117667013Y-98108419D02*
X117762251Y-98156038D01*
X117762251Y-98156038D02*
X117809870Y-98203657D01*
X117809870Y-98203657D02*
X117857489Y-98298895D01*
X117857489Y-98298895D02*
X117857489Y-98346514D01*
X117857489Y-98346514D02*
X117809870Y-98441752D01*
X117809870Y-98441752D02*
X117762251Y-98489371D01*
X117762251Y-98489371D02*
X117667013Y-98536990D01*
X117667013Y-98536990D02*
X117476537Y-98536990D01*
X117476537Y-98536990D02*
X117381299Y-98584609D01*
X117381299Y-98584609D02*
X117333680Y-98632228D01*
X117333680Y-98632228D02*
X117286061Y-98727466D01*
X117286061Y-98727466D02*
X117286061Y-98917942D01*
X117286061Y-98917942D02*
X117333680Y-99013180D01*
X117333680Y-99013180D02*
X117381299Y-99060800D01*
X117381299Y-99060800D02*
X117476537Y-99108419D01*
X117476537Y-99108419D02*
X117667013Y-99108419D01*
X117667013Y-99108419D02*
X117762251Y-99060800D01*
X117762251Y-99060800D02*
X117809870Y-99013180D01*
X117809870Y-99013180D02*
X117857489Y-98917942D01*
X117857489Y-98917942D02*
X117857489Y-98727466D01*
X117857489Y-98727466D02*
X117809870Y-98632228D01*
X117809870Y-98632228D02*
X117762251Y-98584609D01*
X117762251Y-98584609D02*
X117667013Y-98536990D01*
X109538095Y-101972394D02*
X109538095Y-102781917D01*
X109538095Y-102781917D02*
X109585714Y-102877155D01*
X109585714Y-102877155D02*
X109633333Y-102924775D01*
X109633333Y-102924775D02*
X109728571Y-102972394D01*
X109728571Y-102972394D02*
X109919047Y-102972394D01*
X109919047Y-102972394D02*
X110014285Y-102924775D01*
X110014285Y-102924775D02*
X110061904Y-102877155D01*
X110061904Y-102877155D02*
X110109523Y-102781917D01*
X110109523Y-102781917D02*
X110109523Y-101972394D01*
X110538095Y-102067632D02*
X110585714Y-102020013D01*
X110585714Y-102020013D02*
X110680952Y-101972394D01*
X110680952Y-101972394D02*
X110919047Y-101972394D01*
X110919047Y-101972394D02*
X111014285Y-102020013D01*
X111014285Y-102020013D02*
X111061904Y-102067632D01*
X111061904Y-102067632D02*
X111109523Y-102162870D01*
X111109523Y-102162870D02*
X111109523Y-102258108D01*
X111109523Y-102258108D02*
X111061904Y-102400965D01*
X111061904Y-102400965D02*
X110490476Y-102972394D01*
X110490476Y-102972394D02*
X111109523Y-102972394D01*
X102479576Y-91713909D02*
X102146243Y-91713909D01*
X102146243Y-92237719D02*
X102146243Y-91237719D01*
X102146243Y-91237719D02*
X102622433Y-91237719D01*
X102955767Y-92190100D02*
X103098624Y-92237719D01*
X103098624Y-92237719D02*
X103336719Y-92237719D01*
X103336719Y-92237719D02*
X103431957Y-92190100D01*
X103431957Y-92190100D02*
X103479576Y-92142480D01*
X103479576Y-92142480D02*
X103527195Y-92047242D01*
X103527195Y-92047242D02*
X103527195Y-91952004D01*
X103527195Y-91952004D02*
X103479576Y-91856766D01*
X103479576Y-91856766D02*
X103431957Y-91809147D01*
X103431957Y-91809147D02*
X103336719Y-91761528D01*
X103336719Y-91761528D02*
X103146243Y-91713909D01*
X103146243Y-91713909D02*
X103051005Y-91666290D01*
X103051005Y-91666290D02*
X103003386Y-91618671D01*
X103003386Y-91618671D02*
X102955767Y-91523433D01*
X102955767Y-91523433D02*
X102955767Y-91428195D01*
X102955767Y-91428195D02*
X103003386Y-91332957D01*
X103003386Y-91332957D02*
X103051005Y-91285338D01*
X103051005Y-91285338D02*
X103146243Y-91237719D01*
X103146243Y-91237719D02*
X103384338Y-91237719D01*
X103384338Y-91237719D02*
X103527195Y-91285338D01*
X104479576Y-92237719D02*
X103908148Y-92237719D01*
X104193862Y-92237719D02*
X104193862Y-91237719D01*
X104193862Y-91237719D02*
X104098624Y-91380576D01*
X104098624Y-91380576D02*
X104003386Y-91475814D01*
X104003386Y-91475814D02*
X103908148Y-91523433D01*
X107062608Y-84316105D02*
X107014989Y-84363725D01*
X107014989Y-84363725D02*
X106872132Y-84411344D01*
X106872132Y-84411344D02*
X106776894Y-84411344D01*
X106776894Y-84411344D02*
X106634037Y-84363725D01*
X106634037Y-84363725D02*
X106538799Y-84268486D01*
X106538799Y-84268486D02*
X106491180Y-84173248D01*
X106491180Y-84173248D02*
X106443561Y-83982772D01*
X106443561Y-83982772D02*
X106443561Y-83839915D01*
X106443561Y-83839915D02*
X106491180Y-83649439D01*
X106491180Y-83649439D02*
X106538799Y-83554201D01*
X106538799Y-83554201D02*
X106634037Y-83458963D01*
X106634037Y-83458963D02*
X106776894Y-83411344D01*
X106776894Y-83411344D02*
X106872132Y-83411344D01*
X106872132Y-83411344D02*
X107014989Y-83458963D01*
X107014989Y-83458963D02*
X107062608Y-83506582D01*
X107395942Y-83411344D02*
X108062608Y-83411344D01*
X108062608Y-83411344D02*
X107634037Y-84411344D01*
X105167133Y-84347855D02*
X105119514Y-84395475D01*
X105119514Y-84395475D02*
X104976657Y-84443094D01*
X104976657Y-84443094D02*
X104881419Y-84443094D01*
X104881419Y-84443094D02*
X104738562Y-84395475D01*
X104738562Y-84395475D02*
X104643324Y-84300236D01*
X104643324Y-84300236D02*
X104595705Y-84204998D01*
X104595705Y-84204998D02*
X104548086Y-84014522D01*
X104548086Y-84014522D02*
X104548086Y-83871665D01*
X104548086Y-83871665D02*
X104595705Y-83681189D01*
X104595705Y-83681189D02*
X104643324Y-83585951D01*
X104643324Y-83585951D02*
X104738562Y-83490713D01*
X104738562Y-83490713D02*
X104881419Y-83443094D01*
X104881419Y-83443094D02*
X104976657Y-83443094D01*
X104976657Y-83443094D02*
X105119514Y-83490713D01*
X105119514Y-83490713D02*
X105167133Y-83538332D01*
X106119514Y-84443094D02*
X105548086Y-84443094D01*
X105833800Y-84443094D02*
X105833800Y-83443094D01*
X105833800Y-83443094D02*
X105738562Y-83585951D01*
X105738562Y-83585951D02*
X105643324Y-83681189D01*
X105643324Y-83681189D02*
X105548086Y-83728808D01*
X108997170Y-83398644D02*
X108997170Y-84208167D01*
X108997170Y-84208167D02*
X109044789Y-84303405D01*
X109044789Y-84303405D02*
X109092408Y-84351025D01*
X109092408Y-84351025D02*
X109187646Y-84398644D01*
X109187646Y-84398644D02*
X109378122Y-84398644D01*
X109378122Y-84398644D02*
X109473360Y-84351025D01*
X109473360Y-84351025D02*
X109520979Y-84303405D01*
X109520979Y-84303405D02*
X109568598Y-84208167D01*
X109568598Y-84208167D02*
X109568598Y-83398644D01*
X110568598Y-84398644D02*
X109997170Y-84398644D01*
X110282884Y-84398644D02*
X110282884Y-83398644D01*
X110282884Y-83398644D02*
X110187646Y-83541501D01*
X110187646Y-83541501D02*
X110092408Y-83636739D01*
X110092408Y-83636739D02*
X109997170Y-83684358D01*
X92798941Y-89050144D02*
X92798941Y-89764429D01*
X92798941Y-89764429D02*
X92751322Y-89907286D01*
X92751322Y-89907286D02*
X92656084Y-90002525D01*
X92656084Y-90002525D02*
X92513227Y-90050144D01*
X92513227Y-90050144D02*
X92417989Y-90050144D01*
X93227513Y-89145382D02*
X93275132Y-89097763D01*
X93275132Y-89097763D02*
X93370370Y-89050144D01*
X93370370Y-89050144D02*
X93608465Y-89050144D01*
X93608465Y-89050144D02*
X93703703Y-89097763D01*
X93703703Y-89097763D02*
X93751322Y-89145382D01*
X93751322Y-89145382D02*
X93798941Y-89240620D01*
X93798941Y-89240620D02*
X93798941Y-89335858D01*
X93798941Y-89335858D02*
X93751322Y-89478715D01*
X93751322Y-89478715D02*
X93179894Y-90050144D01*
X93179894Y-90050144D02*
X93798941Y-90050144D01*
X89601194Y-105333333D02*
X90315479Y-105333333D01*
X90315479Y-105333333D02*
X90458336Y-105380952D01*
X90458336Y-105380952D02*
X90553575Y-105476190D01*
X90553575Y-105476190D02*
X90601194Y-105619047D01*
X90601194Y-105619047D02*
X90601194Y-105714285D01*
X90601194Y-104333333D02*
X90601194Y-104904761D01*
X90601194Y-104619047D02*
X89601194Y-104619047D01*
X89601194Y-104619047D02*
X89744051Y-104714285D01*
X89744051Y-104714285D02*
X89839289Y-104809523D01*
X89839289Y-104809523D02*
X89886908Y-104904761D01*
X112145783Y-84859030D02*
X112098164Y-84906650D01*
X112098164Y-84906650D02*
X111955307Y-84954269D01*
X111955307Y-84954269D02*
X111860069Y-84954269D01*
X111860069Y-84954269D02*
X111717212Y-84906650D01*
X111717212Y-84906650D02*
X111621974Y-84811411D01*
X111621974Y-84811411D02*
X111574355Y-84716173D01*
X111574355Y-84716173D02*
X111526736Y-84525697D01*
X111526736Y-84525697D02*
X111526736Y-84382840D01*
X111526736Y-84382840D02*
X111574355Y-84192364D01*
X111574355Y-84192364D02*
X111621974Y-84097126D01*
X111621974Y-84097126D02*
X111717212Y-84001888D01*
X111717212Y-84001888D02*
X111860069Y-83954269D01*
X111860069Y-83954269D02*
X111955307Y-83954269D01*
X111955307Y-83954269D02*
X112098164Y-84001888D01*
X112098164Y-84001888D02*
X112145783Y-84049507D01*
X112526736Y-84049507D02*
X112574355Y-84001888D01*
X112574355Y-84001888D02*
X112669593Y-83954269D01*
X112669593Y-83954269D02*
X112907688Y-83954269D01*
X112907688Y-83954269D02*
X113002926Y-84001888D01*
X113002926Y-84001888D02*
X113050545Y-84049507D01*
X113050545Y-84049507D02*
X113098164Y-84144745D01*
X113098164Y-84144745D02*
X113098164Y-84239983D01*
X113098164Y-84239983D02*
X113050545Y-84382840D01*
X113050545Y-84382840D02*
X112479117Y-84954269D01*
X112479117Y-84954269D02*
X113098164Y-84954269D01*
X119357142Y-104969469D02*
X119023809Y-104493278D01*
X118785714Y-104969469D02*
X118785714Y-103969469D01*
X118785714Y-103969469D02*
X119166666Y-103969469D01*
X119166666Y-103969469D02*
X119261904Y-104017088D01*
X119261904Y-104017088D02*
X119309523Y-104064707D01*
X119309523Y-104064707D02*
X119357142Y-104159945D01*
X119357142Y-104159945D02*
X119357142Y-104302802D01*
X119357142Y-104302802D02*
X119309523Y-104398040D01*
X119309523Y-104398040D02*
X119261904Y-104445659D01*
X119261904Y-104445659D02*
X119166666Y-104493278D01*
X119166666Y-104493278D02*
X118785714Y-104493278D01*
X120309523Y-104969469D02*
X119738095Y-104969469D01*
X120023809Y-104969469D02*
X120023809Y-103969469D01*
X120023809Y-103969469D02*
X119928571Y-104112326D01*
X119928571Y-104112326D02*
X119833333Y-104207564D01*
X119833333Y-104207564D02*
X119738095Y-104255183D01*
X121261904Y-104969469D02*
X120690476Y-104969469D01*
X120976190Y-104969469D02*
X120976190Y-103969469D01*
X120976190Y-103969469D02*
X120880952Y-104112326D01*
X120880952Y-104112326D02*
X120785714Y-104207564D01*
X120785714Y-104207564D02*
X120690476Y-104255183D01*
X116889233Y-91240769D02*
X116555900Y-90764578D01*
X116317805Y-91240769D02*
X116317805Y-90240769D01*
X116317805Y-90240769D02*
X116698757Y-90240769D01*
X116698757Y-90240769D02*
X116793995Y-90288388D01*
X116793995Y-90288388D02*
X116841614Y-90336007D01*
X116841614Y-90336007D02*
X116889233Y-90431245D01*
X116889233Y-90431245D02*
X116889233Y-90574102D01*
X116889233Y-90574102D02*
X116841614Y-90669340D01*
X116841614Y-90669340D02*
X116793995Y-90716959D01*
X116793995Y-90716959D02*
X116698757Y-90764578D01*
X116698757Y-90764578D02*
X116317805Y-90764578D01*
X117746376Y-90574102D02*
X117746376Y-91240769D01*
X117508281Y-90193150D02*
X117270186Y-90907435D01*
X117270186Y-90907435D02*
X117889233Y-90907435D01*
X130622069Y-104789194D02*
X129622069Y-104789194D01*
X129622069Y-104789194D02*
X129622069Y-104551099D01*
X129622069Y-104551099D02*
X129669688Y-104408242D01*
X129669688Y-104408242D02*
X129764926Y-104313004D01*
X129764926Y-104313004D02*
X129860164Y-104265385D01*
X129860164Y-104265385D02*
X130050640Y-104217766D01*
X130050640Y-104217766D02*
X130193497Y-104217766D01*
X130193497Y-104217766D02*
X130383973Y-104265385D01*
X130383973Y-104265385D02*
X130479211Y-104313004D01*
X130479211Y-104313004D02*
X130574450Y-104408242D01*
X130574450Y-104408242D02*
X130622069Y-104551099D01*
X130622069Y-104551099D02*
X130622069Y-104789194D01*
X129717307Y-103836813D02*
X129669688Y-103789194D01*
X129669688Y-103789194D02*
X129622069Y-103693956D01*
X129622069Y-103693956D02*
X129622069Y-103455861D01*
X129622069Y-103455861D02*
X129669688Y-103360623D01*
X129669688Y-103360623D02*
X129717307Y-103313004D01*
X129717307Y-103313004D02*
X129812545Y-103265385D01*
X129812545Y-103265385D02*
X129907783Y-103265385D01*
X129907783Y-103265385D02*
X130050640Y-103313004D01*
X130050640Y-103313004D02*
X130622069Y-103884432D01*
X130622069Y-103884432D02*
X130622069Y-103265385D01*
X116882883Y-89272269D02*
X116549550Y-88796078D01*
X116311455Y-89272269D02*
X116311455Y-88272269D01*
X116311455Y-88272269D02*
X116692407Y-88272269D01*
X116692407Y-88272269D02*
X116787645Y-88319888D01*
X116787645Y-88319888D02*
X116835264Y-88367507D01*
X116835264Y-88367507D02*
X116882883Y-88462745D01*
X116882883Y-88462745D02*
X116882883Y-88605602D01*
X116882883Y-88605602D02*
X116835264Y-88700840D01*
X116835264Y-88700840D02*
X116787645Y-88748459D01*
X116787645Y-88748459D02*
X116692407Y-88796078D01*
X116692407Y-88796078D02*
X116311455Y-88796078D01*
X117263836Y-88367507D02*
X117311455Y-88319888D01*
X117311455Y-88319888D02*
X117406693Y-88272269D01*
X117406693Y-88272269D02*
X117644788Y-88272269D01*
X117644788Y-88272269D02*
X117740026Y-88319888D01*
X117740026Y-88319888D02*
X117787645Y-88367507D01*
X117787645Y-88367507D02*
X117835264Y-88462745D01*
X117835264Y-88462745D02*
X117835264Y-88557983D01*
X117835264Y-88557983D02*
X117787645Y-88700840D01*
X117787645Y-88700840D02*
X117216217Y-89272269D01*
X117216217Y-89272269D02*
X117835264Y-89272269D01*
X116905108Y-97130394D02*
X116571775Y-96654203D01*
X116333680Y-97130394D02*
X116333680Y-96130394D01*
X116333680Y-96130394D02*
X116714632Y-96130394D01*
X116714632Y-96130394D02*
X116809870Y-96178013D01*
X116809870Y-96178013D02*
X116857489Y-96225632D01*
X116857489Y-96225632D02*
X116905108Y-96320870D01*
X116905108Y-96320870D02*
X116905108Y-96463727D01*
X116905108Y-96463727D02*
X116857489Y-96558965D01*
X116857489Y-96558965D02*
X116809870Y-96606584D01*
X116809870Y-96606584D02*
X116714632Y-96654203D01*
X116714632Y-96654203D02*
X116333680Y-96654203D01*
X117238442Y-96130394D02*
X117905108Y-96130394D01*
X117905108Y-96130394D02*
X117476537Y-97130394D01*
D12*
%TO.C,C5*%
X113498325Y-87319752D02*
X113498325Y-86797248D01*
X114968325Y-87319752D02*
X114968325Y-86797248D01*
%TO.C,R6*%
X119772936Y-94054625D02*
X120227064Y-94054625D01*
X119772936Y-95524625D02*
X120227064Y-95524625D01*
%TO.C,R5*%
X119772936Y-92321075D02*
X120227064Y-92321075D01*
X119772936Y-93791075D02*
X120227064Y-93791075D01*
D13*
%TO.C,D1*%
X127369975Y-85110675D02*
X127369975Y-85710675D01*
D14*
X128069975Y-83510675D02*
X128069975Y-83510675D01*
X128069975Y-83610675D02*
X128069975Y-83610675D01*
D13*
X128769975Y-85110675D02*
X128769975Y-85710675D01*
D14*
X128069975Y-83510675D02*
G75*
G02*
X128069975Y-83610675I0J-50000D01*
G01*
X128069975Y-83610675D02*
G75*
G02*
X128069975Y-83510675I0J50000D01*
G01*
D12*
%TO.C,R3*%
X119772936Y-86158400D02*
X120227064Y-86158400D01*
X119772936Y-87628400D02*
X120227064Y-87628400D01*
%TO.C,R9*%
X119772936Y-100029975D02*
X120227064Y-100029975D01*
X119772936Y-101499975D02*
X120227064Y-101499975D01*
D10*
%TO.C,JTAG1*%
X130167250Y-101421675D02*
X130167250Y-87941675D01*
D14*
X133167250Y-87941675D02*
X130167250Y-87941675D01*
D10*
X133167250Y-87941675D02*
X133167250Y-101421675D01*
X133167250Y-101421675D02*
X130167250Y-101421675D01*
D12*
%TO.C,R8*%
X119772936Y-98074175D02*
X120227064Y-98074175D01*
X119772936Y-99544175D02*
X120227064Y-99544175D01*
D10*
%TO.C,U2*%
X108776000Y-91347925D02*
X108776000Y-91601925D01*
X108776000Y-91601925D02*
X108776000Y-100999925D01*
X108776000Y-100999925D02*
X111824000Y-100999925D01*
X111824000Y-91347925D02*
X108776000Y-91347925D01*
X111824000Y-91601925D02*
X111824000Y-91347925D01*
X111824000Y-100999925D02*
X111824000Y-91601925D01*
X111421210Y-100237925D02*
G75*
G02*
X110702790Y-100237925I-359210J0D01*
G01*
X110702790Y-100237925D02*
G75*
G02*
X111421210Y-100237925I359210J0D01*
G01*
D12*
%TO.C,FS1*%
X102576325Y-88574614D02*
X102576325Y-88120486D01*
X104046325Y-88574614D02*
X104046325Y-88120486D01*
%TO.C,C7*%
X106379975Y-86248698D02*
X106379975Y-86771202D01*
X107849975Y-86248698D02*
X107849975Y-86771202D01*
%TO.C,C1*%
X104598800Y-86213773D02*
X104598800Y-86736277D01*
X106068800Y-86213773D02*
X106068800Y-86736277D01*
D13*
%TO.C,U1*%
X108259075Y-88556250D02*
X108259075Y-87656250D01*
X108309075Y-86106250D02*
X111209075Y-86106250D01*
X108309075Y-87306250D02*
X108309075Y-86106250D01*
X111209075Y-86106250D02*
X111209075Y-87306250D01*
X111209075Y-87306250D02*
X108309075Y-87306250D01*
D12*
%TO.C,J2*%
X87567025Y-90987575D02*
X89517025Y-90987575D01*
X87567025Y-98807575D02*
X87567025Y-90987575D01*
X87567025Y-98807575D02*
X89517025Y-98807575D01*
X91737025Y-90987575D02*
X94967025Y-90987575D01*
X91737025Y-98807575D02*
X94967025Y-98807575D01*
X96887025Y-91707575D02*
X96887025Y-92787575D01*
X96887025Y-92787575D02*
X97317025Y-92787575D01*
X96887025Y-97007575D02*
X96887025Y-98087575D01*
%TO.C,J1*%
X91586375Y-103670000D02*
X92916375Y-103670000D01*
X91586375Y-105000000D02*
X91586375Y-103670000D01*
X94186375Y-103670000D02*
X109486375Y-103670000D01*
X94186375Y-106330000D02*
X94186375Y-103670000D01*
X94186375Y-106330000D02*
X109486375Y-106330000D01*
X109486375Y-106330000D02*
X109486375Y-103670000D01*
%TO.C,C2*%
X111577450Y-87389602D02*
X111577450Y-86867098D01*
X113047450Y-87389602D02*
X113047450Y-86867098D01*
%TO.C,R11*%
X119772936Y-101976250D02*
X120227064Y-101976250D01*
X119772936Y-103446250D02*
X120227064Y-103446250D01*
%TO.C,R4*%
X119772936Y-90079525D02*
X120227064Y-90079525D01*
X119772936Y-91549525D02*
X120227064Y-91549525D01*
D13*
%TO.C,D2*%
X127338225Y-104620975D02*
X127338225Y-104020975D01*
D14*
X128038225Y-106120975D02*
X128038225Y-106120975D01*
X128038225Y-106220975D02*
X128038225Y-106220975D01*
D13*
X128738225Y-104620975D02*
X128738225Y-104020975D01*
D14*
X128038225Y-106120975D02*
G75*
G02*
X128038225Y-106220975I0J-50000D01*
G01*
X128038225Y-106220975D02*
G75*
G02*
X128038225Y-106120975I0J50000D01*
G01*
D12*
%TO.C,R2*%
X119772936Y-88082450D02*
X120227064Y-88082450D01*
X119772936Y-89552450D02*
X120227064Y-89552450D01*
%TO.C,R7*%
X119772936Y-95950100D02*
X120227064Y-95950100D01*
X119772936Y-97420100D02*
X120227064Y-97420100D01*
%TD*%
M02*
