%TF.GenerationSoftware,KiCad,Pcbnew,9.0.6*%
%TF.CreationDate,2025-12-15T15:35:09+00:00*%
%TF.ProjectId,_2 Blaster,a3322042-6c61-4737-9465-722e6b696361,rev?*%
%TF.SameCoordinates,Original*%
%TF.FileFunction,Soldermask,Top*%
%TF.FilePolarity,Negative*%
%FSLAX46Y46*%
G04 Gerber Fmt 4.6, Leading zero omitted, Abs format (unit mm)*
G04 Created by KiCad (PCBNEW 9.0.6) date 2025-12-15 15:35:09*
%MOMM*%
%LPD*%
G01*
G04 APERTURE LIST*
G04 Aperture macros list*
%AMRoundRect*
0 Rectangle with rounded corners*
0 $1 Rounding radius*
0 $2 $3 $4 $5 $6 $7 $8 $9 X,Y pos of 4 corners*
0 Add a 4 corners polygon primitive as box body*
4,1,4,$2,$3,$4,$5,$6,$7,$8,$9,$2,$3,0*
0 Add four circle primitives for the rounded corners*
1,1,$1+$1,$2,$3*
1,1,$1+$1,$4,$5*
1,1,$1+$1,$6,$7*
1,1,$1+$1,$8,$9*
0 Add four rect primitives between the rounded corners*
20,1,$1+$1,$2,$3,$4,$5,0*
20,1,$1+$1,$4,$5,$6,$7,0*
20,1,$1+$1,$6,$7,$8,$9,0*
20,1,$1+$1,$8,$9,$2,$3,0*%
G04 Aperture macros list end*
%ADD10RoundRect,0.250000X0.475000X-0.337500X0.475000X0.337500X-0.475000X0.337500X-0.475000X-0.337500X0*%
%ADD11RoundRect,0.250000X-0.350000X-0.450000X0.350000X-0.450000X0.350000X0.450000X-0.350000X0.450000X0*%
%ADD12R,1.000000X0.800000*%
%ADD13R,3.000000X1.524000*%
%ADD14R,1.500000X0.600000*%
%ADD15RoundRect,0.250000X0.450000X-0.350000X0.450000X0.350000X-0.450000X0.350000X-0.450000X-0.350000X0*%
%ADD16RoundRect,0.250000X-0.475000X0.337500X-0.475000X-0.337500X0.475000X-0.337500X0.475000X0.337500X0*%
%ADD17R,0.600000X0.900000*%
%ADD18C,1.000000*%
%ADD19R,2.000000X0.500000*%
%ADD20R,1.700000X2.000000*%
%ADD21R,1.700000X1.700000*%
%ADD22C,1.700000*%
G04 APERTURE END LIST*
D10*
%TO.C,C5*%
X114233325Y-88096000D03*
X114233325Y-86021000D03*
%TD*%
D11*
%TO.C,R6*%
X119000000Y-94789625D03*
X121000000Y-94789625D03*
%TD*%
%TO.C,R5*%
X119000000Y-93056075D03*
X121000000Y-93056075D03*
%TD*%
D12*
%TO.C,D1*%
X128069975Y-84410675D03*
X128069975Y-86410675D03*
%TD*%
D11*
%TO.C,R3*%
X119000000Y-86893400D03*
X121000000Y-86893400D03*
%TD*%
%TO.C,R9*%
X119000000Y-100764975D03*
X121000000Y-100764975D03*
%TD*%
D13*
%TO.C,JTAG1*%
X131667250Y-89601675D03*
X131667250Y-92141675D03*
X131667250Y-94681675D03*
X131667250Y-97221675D03*
X131667250Y-99761675D03*
%TD*%
D11*
%TO.C,R8*%
X119000000Y-98809175D03*
X121000000Y-98809175D03*
%TD*%
D14*
%TO.C,U2*%
X113000000Y-100618925D03*
X113000000Y-99348925D03*
X113000000Y-98078925D03*
X113000000Y-96808925D03*
X113000000Y-95538925D03*
X113000000Y-94268925D03*
X113000000Y-92998925D03*
X113000000Y-91728925D03*
X107600000Y-91728925D03*
X107600000Y-92998925D03*
X107600000Y-94268925D03*
X107600000Y-95538925D03*
X107600000Y-96808925D03*
X107600000Y-98078925D03*
X107600000Y-99348925D03*
X107600000Y-100618925D03*
%TD*%
D15*
%TO.C,FS1*%
X103311325Y-89347550D03*
X103311325Y-87347550D03*
%TD*%
D16*
%TO.C,C7*%
X107114975Y-85472450D03*
X107114975Y-87547450D03*
%TD*%
%TO.C,C1*%
X105333800Y-85437525D03*
X105333800Y-87512525D03*
%TD*%
D17*
%TO.C,U1*%
X108809075Y-88106250D03*
X110709075Y-88106250D03*
X109759075Y-85306250D03*
%TD*%
D18*
%TO.C,J2*%
X93477025Y-92697575D03*
X93477025Y-97097575D03*
D19*
X96177025Y-93297575D03*
X96177025Y-94097575D03*
X96177025Y-94897575D03*
X96177025Y-95697575D03*
X96177025Y-96497575D03*
D20*
X96077025Y-90447575D03*
X90627025Y-90447575D03*
X96077025Y-99347575D03*
X90627025Y-99347575D03*
%TD*%
D21*
%TO.C,J1*%
X92916375Y-105000000D03*
D22*
X95456375Y-105000000D03*
X97996375Y-105000000D03*
X100536375Y-105000000D03*
X103076375Y-105000000D03*
X105616375Y-105000000D03*
X108156375Y-105000000D03*
%TD*%
D10*
%TO.C,C2*%
X112312450Y-88165850D03*
X112312450Y-86090850D03*
%TD*%
D11*
%TO.C,R11*%
X119000000Y-102711250D03*
X121000000Y-102711250D03*
%TD*%
%TO.C,R4*%
X119000000Y-90814525D03*
X121000000Y-90814525D03*
%TD*%
D12*
%TO.C,D2*%
X128038225Y-105320975D03*
X128038225Y-103320975D03*
%TD*%
D11*
%TO.C,R2*%
X119000000Y-88817450D03*
X121000000Y-88817450D03*
%TD*%
%TO.C,R7*%
X119000000Y-96685100D03*
X121000000Y-96685100D03*
%TD*%
M02*
