%TF.GenerationSoftware,KiCad,Pcbnew,9.0.6*%
%TF.CreationDate,2025-12-15T15:35:09+00:00*%
%TF.ProjectId,_2 Blaster,a3322042-6c61-4737-9465-722e6b696361,rev?*%
%TF.SameCoordinates,Original*%
%TF.FileFunction,Copper,L1,Top*%
%TF.FilePolarity,Positive*%
%FSLAX46Y46*%
G04 Gerber Fmt 4.6, Leading zero omitted, Abs format (unit mm)*
G04 Created by KiCad (PCBNEW 9.0.6) date 2025-12-15 15:35:09*
%MOMM*%
%LPD*%
G01*
G04 APERTURE LIST*
G04 Aperture macros list*
%AMRoundRect*
0 Rectangle with rounded corners*
0 $1 Rounding radius*
0 $2 $3 $4 $5 $6 $7 $8 $9 X,Y pos of 4 corners*
0 Add a 4 corners polygon primitive as box body*
4,1,4,$2,$3,$4,$5,$6,$7,$8,$9,$2,$3,0*
0 Add four circle primitives for the rounded corners*
1,1,$1+$1,$2,$3*
1,1,$1+$1,$4,$5*
1,1,$1+$1,$6,$7*
1,1,$1+$1,$8,$9*
0 Add four rect primitives between the rounded corners*
20,1,$1+$1,$2,$3,$4,$5,0*
20,1,$1+$1,$4,$5,$6,$7,0*
20,1,$1+$1,$6,$7,$8,$9,0*
20,1,$1+$1,$8,$9,$2,$3,0*%
G04 Aperture macros list end*
%TA.AperFunction,SMDPad,CuDef*%
%ADD10RoundRect,0.250000X0.475000X-0.337500X0.475000X0.337500X-0.475000X0.337500X-0.475000X-0.337500X0*%
%TD*%
%TA.AperFunction,SMDPad,CuDef*%
%ADD11RoundRect,0.250000X-0.350000X-0.450000X0.350000X-0.450000X0.350000X0.450000X-0.350000X0.450000X0*%
%TD*%
%TA.AperFunction,SMDPad,CuDef*%
%ADD12R,1.000000X0.800000*%
%TD*%
%TA.AperFunction,SMDPad,CuDef*%
%ADD13R,3.000000X1.524000*%
%TD*%
%TA.AperFunction,SMDPad,CuDef*%
%ADD14R,1.500000X0.600000*%
%TD*%
%TA.AperFunction,SMDPad,CuDef*%
%ADD15RoundRect,0.250000X0.450000X-0.350000X0.450000X0.350000X-0.450000X0.350000X-0.450000X-0.350000X0*%
%TD*%
%TA.AperFunction,SMDPad,CuDef*%
%ADD16RoundRect,0.250000X-0.475000X0.337500X-0.475000X-0.337500X0.475000X-0.337500X0.475000X0.337500X0*%
%TD*%
%TA.AperFunction,SMDPad,CuDef*%
%ADD17R,0.600000X0.900000*%
%TD*%
%TA.AperFunction,SMDPad,CuDef*%
%ADD18R,2.000000X0.500000*%
%TD*%
%TA.AperFunction,SMDPad,CuDef*%
%ADD19R,1.700000X2.000000*%
%TD*%
%TA.AperFunction,ComponentPad*%
%ADD20R,1.700000X1.700000*%
%TD*%
%TA.AperFunction,ComponentPad*%
%ADD21C,1.700000*%
%TD*%
%TA.AperFunction,ViaPad*%
%ADD22C,0.600000*%
%TD*%
%TA.AperFunction,Conductor*%
%ADD23C,0.200000*%
%TD*%
%TA.AperFunction,Conductor*%
%ADD24C,0.500000*%
%TD*%
G04 APERTURE END LIST*
D10*
%TO.P,C5,1*%
%TO.N,+3V3*%
X114233325Y-88096000D03*
%TO.P,C5,2*%
%TO.N,GND*%
X114233325Y-86021000D03*
%TD*%
D11*
%TO.P,R6,1*%
%TO.N,NCE1*%
X119000000Y-94789625D03*
%TO.P,R6,2*%
%TO.N,NCE*%
X121000000Y-94789625D03*
%TD*%
%TO.P,R5,1*%
%TO.N,TMSI*%
X119000000Y-93056075D03*
%TO.P,R5,2*%
%TO.N,TMS*%
X121000000Y-93056075D03*
%TD*%
D12*
%TO.P,D1,1,K*%
%TO.N,GND*%
X128069975Y-84410675D03*
%TO.P,D1,2,A*%
%TO.N,Net-(D1-A)*%
X128069975Y-86410675D03*
%TD*%
D11*
%TO.P,R3,1*%
%TO.N,+3V3*%
X119000000Y-86893400D03*
%TO.P,R3,2*%
%TO.N,Net-(D1-A)*%
X121000000Y-86893400D03*
%TD*%
%TO.P,R9,1*%
%TO.N,NCSI*%
X119000000Y-100764975D03*
%TO.P,R9,2*%
%TO.N,NCS*%
X121000000Y-100764975D03*
%TD*%
D13*
%TO.P,JTAG1,1,1*%
%TO.N,TCK*%
X131667250Y-89601675D03*
%TO.P,JTAG1,3,3*%
%TO.N,TDO*%
X131667250Y-92141675D03*
%TO.P,JTAG1,5,5*%
%TO.N,TMS*%
X131667250Y-94681675D03*
%TO.P,JTAG1,7,7*%
%TO.N,ASDO*%
X131667250Y-97221675D03*
%TO.P,JTAG1,9,9*%
%TO.N,TDI*%
X131667250Y-99761675D03*
%TD*%
D11*
%TO.P,R8,1*%
%TO.N,TDII*%
X119000000Y-98809175D03*
%TO.P,R8,2*%
%TO.N,TDI*%
X121000000Y-98809175D03*
%TD*%
D14*
%TO.P,U2,1,P3.2/TXD1/INT0/VBUS1/AIN3*%
%TO.N,TMSI*%
X113000000Y-100618925D03*
%TO.P,U2,2,P1.4/T2/CAP1/SCS/TIN2/UCC1/AIN1*%
%TO.N,NCSI*%
X113000000Y-99348925D03*
%TO.P,U2,3,P1.5/MOSI/PWM1/TIN3/UCC2/AIN2*%
%TO.N,TDII*%
X113000000Y-98078925D03*
%TO.P,U2,4,P1.6/MISO/RXD1/TIN4*%
%TO.N,RXD*%
X113000000Y-96808925D03*
%TO.P,U2,5,P1.7/SCK/TXD1/TIN5*%
%TO.N,TCKI*%
X113000000Y-95538925D03*
%TO.P,U2,6,RST/T2EX/CAP2*%
%TO.N,RST*%
X113000000Y-94268925D03*
%TO.P,U2,7,P3.1/PWM2/TXD*%
%TO.N,unconnected-(U2-P3.1{slash}PWM2{slash}TXD-Pad7)*%
X113000000Y-92998925D03*
%TO.P,U2,8,P3.0/PWM1/RXD*%
%TO.N,unconnected-(U2-P3.0{slash}PWM1{slash}RXD-Pad8)*%
X113000000Y-91728925D03*
%TO.P,U2,9,P1.1/T2EX/CAP2/TIN1/VBUS2/AIN0*%
%TO.N,ENABLE*%
X107600000Y-91728925D03*
%TO.P,U2,10,P3.3/INT1*%
%TO.N,ASDOI*%
X107600000Y-92998925D03*
%TO.P,U2,11,P3.4/PWM2/RXD1/T0*%
%TO.N,NCE1*%
X107600000Y-94268925D03*
%TO.P,U2,12,P3.6/UDP*%
%TO.N,DATA+*%
X107600000Y-95538925D03*
%TO.P,U2,13,P3.7/UDM*%
%TO.N,DATA-*%
X107600000Y-96808925D03*
%TO.P,U2,14,GND/VSS*%
%TO.N,GND*%
X107600000Y-98078925D03*
%TO.P,U2,15,VCC/VDD*%
%TO.N,+3V3*%
X107600000Y-99348925D03*
%TO.P,U2,16,V33*%
X107600000Y-100618925D03*
%TD*%
D15*
%TO.P,FS1,1*%
%TO.N,VIN*%
X103311325Y-89347550D03*
%TO.P,FS1,2*%
%TO.N,Net-(U1-VIN)*%
X103311325Y-87347550D03*
%TD*%
D16*
%TO.P,C7,1*%
%TO.N,Net-(U1-VIN)*%
X107114975Y-85472450D03*
%TO.P,C7,2*%
%TO.N,GND*%
X107114975Y-87547450D03*
%TD*%
%TO.P,C1,1*%
%TO.N,Net-(U1-VIN)*%
X105333800Y-85437525D03*
%TO.P,C1,2*%
%TO.N,GND*%
X105333800Y-87512525D03*
%TD*%
D17*
%TO.P,U1,1,VSS*%
%TO.N,GND*%
X108809075Y-88106250D03*
%TO.P,U1,2,VOUT*%
%TO.N,+3V3*%
X110709075Y-88106250D03*
%TO.P,U1,3,VIN*%
%TO.N,Net-(U1-VIN)*%
X109759075Y-85306250D03*
%TD*%
D18*
%TO.P,J2,1,VBUS*%
%TO.N,VIN*%
X96177025Y-93297575D03*
%TO.P,J2,2,D-*%
%TO.N,DATA-*%
X96177025Y-94097575D03*
%TO.P,J2,3,D+*%
%TO.N,DATA+*%
X96177025Y-94897575D03*
%TO.P,J2,4,ID*%
%TO.N,unconnected-(J2-ID-Pad4)*%
X96177025Y-95697575D03*
%TO.P,J2,5,GND*%
%TO.N,GND*%
X96177025Y-96497575D03*
D19*
%TO.P,J2,6,Shield*%
X96077025Y-90447575D03*
X90627025Y-90447575D03*
X96077025Y-99347575D03*
X90627025Y-99347575D03*
%TD*%
D20*
%TO.P,J1,1,Pin_1*%
%TO.N,GND*%
X92916375Y-105000000D03*
D21*
%TO.P,J1,2,Pin_2*%
%TO.N,DATA+*%
X95456375Y-105000000D03*
%TO.P,J1,3,Pin_3*%
%TO.N,DATA-*%
X97996375Y-105000000D03*
%TO.P,J1,4,Pin_4*%
%TO.N,+3V3*%
X100536375Y-105000000D03*
%TO.P,J1,5,Pin_5*%
%TO.N,RXD*%
X103076375Y-105000000D03*
%TO.P,J1,6,Pin_6*%
%TO.N,TCKI*%
X105616375Y-105000000D03*
%TO.P,J1,7,Pin_7*%
%TO.N,GND*%
X108156375Y-105000000D03*
%TD*%
D10*
%TO.P,C2,1*%
%TO.N,+3V3*%
X112312450Y-88165850D03*
%TO.P,C2,2*%
%TO.N,GND*%
X112312450Y-86090850D03*
%TD*%
D11*
%TO.P,R11,1*%
%TO.N,ENABLE*%
X119000000Y-102711250D03*
%TO.P,R11,2*%
%TO.N,Net-(D2-A)*%
X121000000Y-102711250D03*
%TD*%
%TO.P,R4,1*%
%TO.N,RXD*%
X119000000Y-90814525D03*
%TO.P,R4,2*%
%TO.N,TDO*%
X121000000Y-90814525D03*
%TD*%
D12*
%TO.P,D2,1,K*%
%TO.N,GND*%
X128038225Y-105320975D03*
%TO.P,D2,2,A*%
%TO.N,Net-(D2-A)*%
X128038225Y-103320975D03*
%TD*%
D11*
%TO.P,R2,1*%
%TO.N,TCKI*%
X119000000Y-88817450D03*
%TO.P,R2,2*%
%TO.N,TCK*%
X121000000Y-88817450D03*
%TD*%
%TO.P,R7,1*%
%TO.N,ASDOI*%
X119000000Y-96685100D03*
%TO.P,R7,2*%
%TO.N,ASDO*%
X121000000Y-96685100D03*
%TD*%
D22*
%TO.N,+3V3*%
X105483025Y-93268800D03*
X105378250Y-98923475D03*
%TO.N,GND*%
X103625650Y-99069525D03*
X129800350Y-105302050D03*
X125555375Y-83800000D03*
X115600000Y-103500000D03*
X100034725Y-99104450D03*
%TO.N,DATA+*%
X100320475Y-95100000D03*
%TO.N,DATA-*%
X100500000Y-94097575D03*
%TO.N,VIN*%
X100200000Y-91900000D03*
%TO.N,ASDOI*%
X119000000Y-96685100D03*
X115490625Y-90763725D03*
%TO.N,ENABLE*%
X113395125Y-89858850D03*
X117344825Y-101784150D03*
%TO.N,NCE1*%
X109870875Y-94253050D03*
X116500275Y-94707075D03*
%TO.N,ASDO*%
X125600000Y-96685100D03*
%TO.N,NCS*%
X126625350Y-100666550D03*
%TO.N,TDI*%
X125700000Y-98809175D03*
%TO.N,TDO*%
X125600000Y-92141675D03*
%TO.N,TMS*%
X126500000Y-93300000D03*
%TO.N,NCE*%
X126879350Y-94865825D03*
%TO.N,TCK*%
X125600000Y-89600000D03*
%TO.N,RXD*%
X108703923Y-103603923D03*
%TD*%
D23*
%TO.N,RXD*%
X110700000Y-101607846D02*
X108703923Y-103603923D01*
X110700000Y-97400000D02*
X110700000Y-101607846D01*
X111300000Y-96800000D02*
X110700000Y-97400000D01*
X112808925Y-96800000D02*
X111300000Y-96800000D01*
%TO.N,TMSI*%
X112303800Y-100618925D02*
X113000000Y-100618925D01*
X111500000Y-99815125D02*
X112303800Y-100618925D01*
X115601750Y-97164525D02*
X115288350Y-97477925D01*
X115601750Y-94561025D02*
X115601750Y-97164525D01*
X111822075Y-97477925D02*
X111500000Y-97800000D01*
X117106700Y-93056075D02*
X115601750Y-94561025D01*
X115288350Y-97477925D02*
X111822075Y-97477925D01*
X111500000Y-97800000D02*
X111500000Y-99815125D01*
X119000000Y-93056075D02*
X117106700Y-93056075D01*
%TO.N,RXD*%
X118252875Y-90814525D02*
X119000000Y-90814525D01*
X114728625Y-96808925D02*
X115147725Y-96389825D01*
X115147725Y-93919675D02*
X118252875Y-90814525D01*
X113000000Y-96808925D02*
X114728625Y-96808925D01*
X115147725Y-96389825D02*
X115147725Y-93919675D01*
%TO.N,TCKI*%
X110000000Y-96100000D02*
X110000000Y-100616375D01*
X110561075Y-95538925D02*
X110000000Y-96100000D01*
X113000000Y-95538925D02*
X110561075Y-95538925D01*
X110000000Y-100616375D02*
X105616375Y-105000000D01*
%TO.N,Net-(U1-VIN)*%
X105352625Y-85306250D02*
X103311325Y-87347550D01*
X109759075Y-85306250D02*
X105352625Y-85306250D01*
%TO.N,+3V3*%
X105378250Y-99447350D02*
X105378250Y-98923475D01*
X100536375Y-103381175D02*
X100634800Y-103282750D01*
X105797350Y-90338275D02*
X105413175Y-90722450D01*
X105832275Y-90338275D02*
X105797350Y-90338275D01*
X105517950Y-101365050D02*
X105378250Y-101225350D01*
X105476675Y-99348925D02*
X105378250Y-99447350D01*
X116919375Y-86893400D02*
X115706525Y-88106250D01*
X105451275Y-100618925D02*
X105378250Y-100691950D01*
X105483025Y-90792300D02*
X105483025Y-93268800D01*
X115706525Y-88106250D02*
X110709075Y-88106250D01*
X105378250Y-101225350D02*
X105378250Y-100691950D01*
X100536375Y-105298875D02*
X100536375Y-103381175D01*
X119000000Y-86893400D02*
X116919375Y-86893400D01*
X105378250Y-100691950D02*
X105378250Y-99447350D01*
X107600000Y-100618925D02*
X105451275Y-100618925D01*
X105413175Y-90722450D02*
X105483025Y-90792300D01*
X100634800Y-103282750D02*
X102552500Y-101365050D01*
X102552500Y-101365050D02*
X105517950Y-101365050D01*
X107600000Y-99348925D02*
X105476675Y-99348925D01*
X110709075Y-88106250D02*
X108477050Y-90338275D01*
X108477050Y-90338275D02*
X105832275Y-90338275D01*
%TO.N,Net-(D1-A)*%
X124666375Y-86893400D02*
X125149100Y-86410675D01*
X125149100Y-86410675D02*
X128069975Y-86410675D01*
X121000000Y-86893400D02*
X124666375Y-86893400D01*
%TO.N,GND*%
X105927525Y-88106250D02*
X105333800Y-87512525D01*
X99791600Y-99347575D02*
X96077025Y-99347575D01*
X108455250Y-105298875D02*
X128016125Y-105298875D01*
X108809075Y-88106250D02*
X105927525Y-88106250D01*
X92916375Y-101636925D02*
X90627025Y-99347575D01*
X108156375Y-105000000D02*
X109656375Y-103500000D01*
X129800350Y-105302050D02*
X128057150Y-105302050D01*
X96077025Y-90447575D02*
X90627025Y-90447575D01*
X114233325Y-86021000D02*
X110894325Y-86021000D01*
X128016125Y-105298875D02*
X128038225Y-105320975D01*
X104476550Y-98078925D02*
X103625650Y-98929825D01*
X128069975Y-84410675D02*
X115843650Y-84410675D01*
X107600000Y-98078925D02*
X104476550Y-98078925D01*
X125555375Y-83800000D02*
X126166050Y-84410675D01*
X96077025Y-90447575D02*
X102222000Y-84302600D01*
X108156375Y-105000000D02*
X108455250Y-105298875D01*
X103625650Y-98929825D02*
X103625650Y-99069525D01*
X109656375Y-103500000D02*
X115600000Y-103500000D01*
X100034725Y-99104450D02*
X99791600Y-99347575D01*
X96077025Y-99347575D02*
X96077025Y-96597575D01*
X92916375Y-105298875D02*
X92916375Y-101636925D01*
X90627025Y-99347575D02*
X96077025Y-99347575D01*
X110894325Y-86021000D02*
X108809075Y-88106250D01*
X115843650Y-84410675D02*
X114233325Y-86021000D01*
X90627025Y-90447575D02*
X90627025Y-99347575D01*
X126166050Y-84410675D02*
X128069975Y-84410675D01*
X128057150Y-105302050D02*
X128038225Y-105320975D01*
X102222000Y-84302600D02*
X115916075Y-84302600D01*
X96077025Y-96597575D02*
X96177025Y-96497575D01*
%TO.N,Net-(D2-A)*%
X127428500Y-102711250D02*
X128038225Y-103320975D01*
X121000000Y-102711250D02*
X127428500Y-102711250D01*
%TO.N,DATA+*%
X107600000Y-95538925D02*
X104574975Y-95538925D01*
X103897575Y-94897575D02*
X100285550Y-94897575D01*
X100320475Y-94932500D02*
X100285550Y-94897575D01*
X104574975Y-95538925D02*
X104540050Y-95573850D01*
X101085650Y-97243900D02*
X100320475Y-96478725D01*
X100320475Y-96478725D02*
X100320475Y-95100000D01*
X100285550Y-94897575D02*
X96177025Y-94897575D01*
X103900000Y-94933800D02*
X103900000Y-94900000D01*
X104540050Y-95573850D02*
X103900000Y-94933800D01*
X95456375Y-105298875D02*
X101085650Y-99669600D01*
X100320475Y-95100000D02*
X100320475Y-94932500D01*
X101085650Y-99669600D02*
X101085650Y-97243900D01*
X103900000Y-94900000D02*
X103897575Y-94897575D01*
%TO.N,DATA-*%
X105776650Y-94097575D02*
X106617000Y-94937925D01*
X108651000Y-96412725D02*
X108254800Y-96808925D01*
X107600000Y-96808925D02*
X102396925Y-96808925D01*
X98085275Y-105209975D02*
X97996375Y-105298875D01*
X101993700Y-97212150D02*
X102063550Y-97282000D01*
X100500000Y-94097575D02*
X105776650Y-94097575D01*
X106617000Y-94937925D02*
X108651000Y-94937925D01*
X102063550Y-97282000D02*
X102063550Y-99863275D01*
X102063550Y-99863275D02*
X98085275Y-103841550D01*
X96177025Y-94097575D02*
X100500000Y-94097575D01*
X102396925Y-96808925D02*
X101993700Y-97212150D01*
X108651000Y-94937925D02*
X108651000Y-96412725D01*
X108254800Y-96808925D02*
X107600000Y-96808925D01*
X98085275Y-103841550D02*
X98085275Y-105209975D01*
D24*
%TO.N,VIN*%
X100200000Y-91900000D02*
X100200000Y-92239925D01*
X103311325Y-89347550D02*
X103311325Y-91430475D01*
X102841800Y-91900000D02*
X100200000Y-91900000D01*
X100200000Y-92239925D02*
X99142350Y-93297575D01*
X103311325Y-91430475D02*
X102841800Y-91900000D01*
X99142350Y-93297575D02*
X96177025Y-93297575D01*
D23*
%TO.N,TCKI*%
X118099000Y-90129365D02*
X119000000Y-89228365D01*
X114055525Y-95538925D02*
X114068225Y-95551625D01*
X118099000Y-90187350D02*
X118099000Y-90129365D01*
X114214275Y-95551625D02*
X114519075Y-95246825D01*
X114068225Y-95551625D02*
X114214275Y-95551625D01*
X113000000Y-95538925D02*
X114055525Y-95538925D01*
X119000000Y-89228365D02*
X119000000Y-88817450D01*
X114519075Y-93767275D02*
X118099000Y-90187350D01*
X114519075Y-95246825D02*
X114519075Y-93767275D01*
%TO.N,NCSI*%
X116481225Y-99348925D02*
X117897275Y-100764975D01*
X113000000Y-99348925D02*
X116481225Y-99348925D01*
X117897275Y-100764975D02*
X119000000Y-100764975D01*
%TO.N,ASDOI*%
X109521625Y-92998925D02*
X107600000Y-92998925D01*
X111756825Y-90763725D02*
X109521625Y-92998925D01*
X115490625Y-90763725D02*
X111756825Y-90763725D01*
%TO.N,TDII*%
X118269750Y-98078925D02*
X119000000Y-98809175D01*
X113000000Y-98078925D02*
X118269750Y-98078925D01*
%TO.N,ENABLE*%
X119000000Y-102711250D02*
X118271925Y-102711250D01*
X109153325Y-91728925D02*
X107600000Y-91728925D01*
X113185575Y-90068400D02*
X110813850Y-90068400D01*
X113395125Y-89858850D02*
X113185575Y-90068400D01*
X118271925Y-102711250D02*
X117344825Y-101784150D01*
X110813850Y-90068400D02*
X109153325Y-91728925D01*
%TO.N,NCE1*%
X116648500Y-94855300D02*
X116500275Y-94707075D01*
X109870875Y-94253050D02*
X109855000Y-94268925D01*
X109855000Y-94268925D02*
X107600000Y-94268925D01*
X119000000Y-94789625D02*
X118934325Y-94855300D01*
X118934325Y-94855300D02*
X116648500Y-94855300D01*
%TO.N,ASDO*%
X127821675Y-97221675D02*
X131667250Y-97221675D01*
X127320675Y-96685100D02*
X127800000Y-97164425D01*
X127800000Y-97164425D02*
X127800000Y-97200000D01*
X127800000Y-97200000D02*
X127821675Y-97221675D01*
X125600000Y-96685100D02*
X127320675Y-96685100D01*
X121000000Y-96685100D02*
X125600000Y-96685100D01*
%TO.N,NCS*%
X121000000Y-100764975D02*
X126526925Y-100764975D01*
X126526925Y-100764975D02*
X126625350Y-100666550D01*
%TO.N,TDI*%
X128717675Y-99761675D02*
X131667250Y-99761675D01*
X125700000Y-98809175D02*
X127422275Y-98809175D01*
X121000000Y-98809175D02*
X125700000Y-98809175D01*
X127422275Y-98809175D02*
X128546225Y-99933125D01*
X128546225Y-99933125D02*
X128717675Y-99761675D01*
%TO.N,TDO*%
X124266325Y-92141675D02*
X125600000Y-92141675D01*
X121000000Y-90814525D02*
X122913775Y-90814525D01*
X122913775Y-90814525D02*
X124253625Y-92154375D01*
X124253625Y-92154375D02*
X124266325Y-92141675D01*
X125600000Y-92141675D02*
X128000000Y-92141675D01*
X128000000Y-92141675D02*
X131667250Y-92141675D01*
%TO.N,TMS*%
X128635125Y-94681675D02*
X131667250Y-94681675D01*
X126500000Y-93300000D02*
X127005800Y-93300000D01*
X128511300Y-94805500D02*
X128635125Y-94681675D01*
X121243925Y-93300000D02*
X126500000Y-93300000D01*
X127005800Y-93300000D02*
X128511300Y-94805500D01*
X121000000Y-93056075D02*
X121243925Y-93300000D01*
%TO.N,NCE*%
X126803150Y-94789625D02*
X126879350Y-94865825D01*
X121000000Y-94789625D02*
X126803150Y-94789625D01*
%TO.N,TCK*%
X131667250Y-89601675D02*
X125600000Y-89601675D01*
X124421900Y-89601675D02*
X123729750Y-88909525D01*
X123729750Y-88909525D02*
X120449975Y-88909525D01*
X120357900Y-88817450D02*
X121000000Y-88817450D01*
X125600000Y-89601675D02*
X124421900Y-89601675D01*
X120449975Y-88909525D02*
X120357900Y-88817450D01*
%TO.N,RXD*%
X102895400Y-105117900D02*
X103076375Y-105298875D01*
%TD*%
%TA.AperFunction,Conductor*%
%TO.N,GND*%
G36*
X127146628Y-83520185D02*
G01*
X127192383Y-83572989D01*
X127202327Y-83642147D01*
X127178855Y-83698811D01*
X127126624Y-83768581D01*
X127126620Y-83768588D01*
X127076378Y-83903295D01*
X127076376Y-83903302D01*
X127069975Y-83962830D01*
X127069975Y-84160675D01*
X129069975Y-84160675D01*
X129069975Y-83962847D01*
X129069974Y-83962830D01*
X129063573Y-83903302D01*
X129063571Y-83903295D01*
X129013329Y-83768588D01*
X129013325Y-83768581D01*
X128961095Y-83698811D01*
X128936677Y-83633347D01*
X128951528Y-83565074D01*
X129000933Y-83515668D01*
X129060361Y-83500500D01*
X134375500Y-83500500D01*
X134442539Y-83520185D01*
X134488294Y-83572989D01*
X134499500Y-83624500D01*
X134499500Y-105875500D01*
X134479815Y-105942539D01*
X134427011Y-105988294D01*
X134375500Y-105999500D01*
X129146582Y-105999500D01*
X129079543Y-105979815D01*
X129033788Y-105927011D01*
X129023844Y-105857853D01*
X129030400Y-105832168D01*
X129031821Y-105828357D01*
X129031823Y-105828347D01*
X129038224Y-105768819D01*
X129038225Y-105768802D01*
X129038225Y-105570975D01*
X127038225Y-105570975D01*
X127038225Y-105768819D01*
X127044626Y-105828347D01*
X127044628Y-105828357D01*
X127046050Y-105832168D01*
X127046276Y-105835329D01*
X127046412Y-105835905D01*
X127046318Y-105835927D01*
X127051034Y-105901859D01*
X127017548Y-105963182D01*
X126956225Y-105996666D01*
X126929868Y-105999500D01*
X109342251Y-105999500D01*
X109275212Y-105979815D01*
X109229457Y-105927011D01*
X109219513Y-105857853D01*
X109241933Y-105802615D01*
X109310995Y-105707557D01*
X109407470Y-105518217D01*
X109473132Y-105316130D01*
X109473132Y-105316127D01*
X109506375Y-105106246D01*
X109506375Y-104893753D01*
X109473132Y-104683872D01*
X109473132Y-104683869D01*
X109407470Y-104481782D01*
X109310997Y-104292444D01*
X109304438Y-104283417D01*
X109280957Y-104217611D01*
X109296782Y-104149557D01*
X109317070Y-104122853D01*
X109325712Y-104114212D01*
X109413317Y-103983102D01*
X109422368Y-103961252D01*
X109442872Y-103911749D01*
X109473660Y-103837420D01*
X109504423Y-103682765D01*
X109504561Y-103682073D01*
X109536946Y-103620162D01*
X109538442Y-103618638D01*
X111058506Y-102098573D01*
X111058511Y-102098570D01*
X111068714Y-102088366D01*
X111068716Y-102088366D01*
X111180520Y-101976562D01*
X111200527Y-101941909D01*
X111246088Y-101862995D01*
X111246089Y-101862993D01*
X111256148Y-101845570D01*
X111259577Y-101839631D01*
X111300500Y-101686903D01*
X111300500Y-101528789D01*
X111300500Y-100764222D01*
X111320185Y-100697183D01*
X111372989Y-100651428D01*
X111442147Y-100641484D01*
X111505703Y-100670509D01*
X111512181Y-100676541D01*
X111713181Y-100877541D01*
X111746666Y-100938864D01*
X111749316Y-100963489D01*
X111749324Y-100963489D01*
X111749331Y-100963633D01*
X111749500Y-100965197D01*
X111749500Y-100966782D01*
X111749501Y-100966802D01*
X111755908Y-101026408D01*
X111806202Y-101161253D01*
X111806206Y-101161260D01*
X111892452Y-101276469D01*
X111892455Y-101276472D01*
X112007664Y-101362718D01*
X112007671Y-101362722D01*
X112142517Y-101413016D01*
X112142516Y-101413016D01*
X112149444Y-101413760D01*
X112202127Y-101419425D01*
X113797872Y-101419424D01*
X113857483Y-101413016D01*
X113992331Y-101362721D01*
X114107546Y-101276471D01*
X114193796Y-101161256D01*
X114244091Y-101026408D01*
X114250500Y-100966798D01*
X114250499Y-100271053D01*
X114244091Y-100211442D01*
X114237856Y-100194725D01*
X114208777Y-100116757D01*
X114203793Y-100047066D01*
X114237279Y-99985743D01*
X114298602Y-99952259D01*
X114324959Y-99949425D01*
X116181128Y-99949425D01*
X116248167Y-99969110D01*
X116268809Y-99985744D01*
X117111731Y-100828666D01*
X117145216Y-100889989D01*
X117140232Y-100959681D01*
X117098360Y-101015614D01*
X117071503Y-101030908D01*
X116965649Y-101074754D01*
X116965639Y-101074759D01*
X116834536Y-101162360D01*
X116834532Y-101162363D01*
X116723038Y-101273857D01*
X116723035Y-101273861D01*
X116635434Y-101404964D01*
X116635427Y-101404977D01*
X116575089Y-101550648D01*
X116575086Y-101550660D01*
X116544325Y-101705303D01*
X116544325Y-101862993D01*
X116575086Y-102017639D01*
X116575089Y-102017651D01*
X116635427Y-102163322D01*
X116635434Y-102163335D01*
X116723035Y-102294438D01*
X116723038Y-102294442D01*
X116834532Y-102405936D01*
X116834536Y-102405939D01*
X116965639Y-102493540D01*
X116965652Y-102493547D01*
X117111323Y-102553885D01*
X117111328Y-102553887D01*
X117159299Y-102563429D01*
X117266674Y-102584788D01*
X117328585Y-102617173D01*
X117330164Y-102618724D01*
X117791403Y-103079963D01*
X117791405Y-103079966D01*
X117865669Y-103154230D01*
X117870631Y-103163317D01*
X117899152Y-103215550D01*
X117901344Y-103229307D01*
X117910001Y-103314047D01*
X117910001Y-103314049D01*
X117950329Y-103435750D01*
X117965186Y-103480584D01*
X118057288Y-103629906D01*
X118181344Y-103753962D01*
X118330666Y-103846064D01*
X118497203Y-103901249D01*
X118599991Y-103911750D01*
X119400008Y-103911749D01*
X119400016Y-103911748D01*
X119400019Y-103911748D01*
X119456302Y-103905998D01*
X119502797Y-103901249D01*
X119669334Y-103846064D01*
X119818656Y-103753962D01*
X119912319Y-103660299D01*
X119973642Y-103626814D01*
X120043334Y-103631798D01*
X120087681Y-103660299D01*
X120181344Y-103753962D01*
X120330666Y-103846064D01*
X120497203Y-103901249D01*
X120599991Y-103911750D01*
X121400008Y-103911749D01*
X121400016Y-103911748D01*
X121400019Y-103911748D01*
X121456302Y-103905998D01*
X121502797Y-103901249D01*
X121669334Y-103846064D01*
X121818656Y-103753962D01*
X121942712Y-103629906D01*
X122034814Y-103480584D01*
X122062595Y-103396745D01*
X122102368Y-103339301D01*
X122166884Y-103312478D01*
X122180301Y-103311750D01*
X126913725Y-103311750D01*
X126980764Y-103331435D01*
X127026519Y-103384239D01*
X127037725Y-103435750D01*
X127037725Y-103768844D01*
X127037726Y-103768851D01*
X127044133Y-103828458D01*
X127094427Y-103963303D01*
X127094431Y-103963310D01*
X127180677Y-104078519D01*
X127180680Y-104078522D01*
X127295889Y-104164768D01*
X127295896Y-104164772D01*
X127403912Y-104205059D01*
X127459845Y-104246930D01*
X127484263Y-104312394D01*
X127469412Y-104380667D01*
X127420007Y-104430073D01*
X127403913Y-104437423D01*
X127296136Y-104477621D01*
X127296131Y-104477624D01*
X127181037Y-104563784D01*
X127181034Y-104563787D01*
X127094874Y-104678881D01*
X127094870Y-104678888D01*
X127044628Y-104813595D01*
X127044626Y-104813602D01*
X127038225Y-104873130D01*
X127038225Y-105070975D01*
X129038225Y-105070975D01*
X129038225Y-104873147D01*
X129038224Y-104873130D01*
X129031823Y-104813602D01*
X129031821Y-104813595D01*
X128981579Y-104678888D01*
X128981575Y-104678881D01*
X128895415Y-104563787D01*
X128895412Y-104563784D01*
X128780318Y-104477624D01*
X128780311Y-104477620D01*
X128672537Y-104437423D01*
X128616603Y-104395552D01*
X128592186Y-104330087D01*
X128607038Y-104261814D01*
X128656443Y-104212409D01*
X128672538Y-104205059D01*
X128780551Y-104164773D01*
X128780551Y-104164772D01*
X128780556Y-104164771D01*
X128895771Y-104078521D01*
X128982021Y-103963306D01*
X129032316Y-103828458D01*
X129038725Y-103768848D01*
X129038724Y-102873103D01*
X129032316Y-102813492D01*
X128982021Y-102678644D01*
X128982020Y-102678643D01*
X128982018Y-102678639D01*
X128895772Y-102563430D01*
X128895769Y-102563427D01*
X128780560Y-102477181D01*
X128780553Y-102477177D01*
X128645707Y-102426883D01*
X128645708Y-102426883D01*
X128586108Y-102420476D01*
X128586106Y-102420475D01*
X128586098Y-102420475D01*
X128586090Y-102420475D01*
X128038322Y-102420475D01*
X128008881Y-102411830D01*
X127978895Y-102405307D01*
X127973879Y-102401552D01*
X127971283Y-102400790D01*
X127950641Y-102384156D01*
X127916090Y-102349605D01*
X127916088Y-102349602D01*
X127797217Y-102230731D01*
X127797216Y-102230730D01*
X127710404Y-102180610D01*
X127710404Y-102180609D01*
X127710400Y-102180608D01*
X127660285Y-102151673D01*
X127507557Y-102110749D01*
X127349443Y-102110749D01*
X127341847Y-102110749D01*
X127341831Y-102110750D01*
X122180301Y-102110750D01*
X122113262Y-102091065D01*
X122067507Y-102038261D01*
X122062595Y-102025754D01*
X122054680Y-102001869D01*
X122034814Y-101941916D01*
X121986135Y-101862995D01*
X121949259Y-101803208D01*
X121930819Y-101735816D01*
X121949258Y-101673017D01*
X122034814Y-101534309D01*
X122062595Y-101450470D01*
X122102368Y-101393026D01*
X122166884Y-101366203D01*
X122180301Y-101365475D01*
X126196231Y-101365475D01*
X126243683Y-101374914D01*
X126351144Y-101419425D01*
X126391853Y-101436287D01*
X126546503Y-101467049D01*
X126546506Y-101467050D01*
X126546508Y-101467050D01*
X126704194Y-101467050D01*
X126704195Y-101467049D01*
X126858847Y-101436287D01*
X127004529Y-101375944D01*
X127135639Y-101288339D01*
X127247139Y-101176839D01*
X127334744Y-101045729D01*
X127395087Y-100900047D01*
X127425850Y-100745392D01*
X127425850Y-100587708D01*
X127425850Y-100587705D01*
X127425849Y-100587703D01*
X127395087Y-100433053D01*
X127379492Y-100395402D01*
X127334747Y-100287377D01*
X127334740Y-100287364D01*
X127247139Y-100156261D01*
X127247136Y-100156257D01*
X127135642Y-100044763D01*
X127135638Y-100044760D01*
X127004535Y-99957159D01*
X127004522Y-99957152D01*
X126858851Y-99896814D01*
X126858839Y-99896811D01*
X126704195Y-99866050D01*
X126704192Y-99866050D01*
X126546508Y-99866050D01*
X126546505Y-99866050D01*
X126391860Y-99896811D01*
X126391848Y-99896814D01*
X126246177Y-99957152D01*
X126246164Y-99957159D01*
X126115061Y-100044760D01*
X126115057Y-100044763D01*
X126031665Y-100128156D01*
X125970342Y-100161641D01*
X125943984Y-100164475D01*
X122180301Y-100164475D01*
X122113262Y-100144790D01*
X122067507Y-100091986D01*
X122062595Y-100079479D01*
X122034814Y-99995641D01*
X121946320Y-99852168D01*
X121927881Y-99784779D01*
X121946319Y-99721981D01*
X122034814Y-99578509D01*
X122062595Y-99494670D01*
X122102368Y-99437226D01*
X122166884Y-99410403D01*
X122180301Y-99409675D01*
X125120234Y-99409675D01*
X125187273Y-99429360D01*
X125189125Y-99430573D01*
X125320814Y-99518565D01*
X125320827Y-99518572D01*
X125465523Y-99578506D01*
X125466503Y-99578912D01*
X125560328Y-99597575D01*
X125621153Y-99609674D01*
X125621156Y-99609675D01*
X125621158Y-99609675D01*
X125778844Y-99609675D01*
X125778845Y-99609674D01*
X125933497Y-99578912D01*
X126079179Y-99518569D01*
X126102128Y-99503235D01*
X126210875Y-99430573D01*
X126277553Y-99409695D01*
X126279766Y-99409675D01*
X127122178Y-99409675D01*
X127189217Y-99429360D01*
X127209859Y-99445994D01*
X128065706Y-100301841D01*
X128177509Y-100413644D01*
X128314440Y-100492702D01*
X128467168Y-100533626D01*
X128467171Y-100533626D01*
X128625279Y-100533626D01*
X128625282Y-100533626D01*
X128778010Y-100492702D01*
X128914941Y-100413644D01*
X128930091Y-100398494D01*
X128991414Y-100365009D01*
X129017772Y-100362175D01*
X129542751Y-100362175D01*
X129609790Y-100381860D01*
X129655545Y-100434664D01*
X129666751Y-100486175D01*
X129666751Y-100571551D01*
X129673158Y-100631158D01*
X129723452Y-100766003D01*
X129723456Y-100766010D01*
X129809702Y-100881219D01*
X129809705Y-100881222D01*
X129924914Y-100967468D01*
X129924921Y-100967472D01*
X130059767Y-101017766D01*
X130059766Y-101017766D01*
X130066694Y-101018510D01*
X130119377Y-101024175D01*
X133215122Y-101024174D01*
X133274733Y-101017766D01*
X133409581Y-100967471D01*
X133524796Y-100881221D01*
X133611046Y-100766006D01*
X133661341Y-100631158D01*
X133667750Y-100571548D01*
X133667749Y-98951803D01*
X133661341Y-98892192D01*
X133633775Y-98818285D01*
X133611047Y-98757346D01*
X133611043Y-98757339D01*
X133547065Y-98671877D01*
X133524796Y-98642129D01*
X133456416Y-98590940D01*
X133414547Y-98535008D01*
X133409563Y-98465316D01*
X133443048Y-98403993D01*
X133456411Y-98392413D01*
X133524796Y-98341221D01*
X133611046Y-98226006D01*
X133661341Y-98091158D01*
X133667750Y-98031548D01*
X133667749Y-96411803D01*
X133661341Y-96352192D01*
X133659432Y-96347075D01*
X133611047Y-96217346D01*
X133611043Y-96217339D01*
X133547645Y-96132651D01*
X133524796Y-96102129D01*
X133456416Y-96050940D01*
X133414547Y-95995008D01*
X133409563Y-95925316D01*
X133443048Y-95863993D01*
X133456411Y-95852413D01*
X133524796Y-95801221D01*
X133611046Y-95686006D01*
X133661341Y-95551158D01*
X133667750Y-95491548D01*
X133667749Y-93871803D01*
X133661341Y-93812192D01*
X133635443Y-93742757D01*
X133611047Y-93677346D01*
X133611043Y-93677339D01*
X133524797Y-93562131D01*
X133524798Y-93562131D01*
X133524796Y-93562129D01*
X133456416Y-93510940D01*
X133414547Y-93455008D01*
X133409563Y-93385316D01*
X133443048Y-93323993D01*
X133456411Y-93312413D01*
X133524796Y-93261221D01*
X133611046Y-93146006D01*
X133661341Y-93011158D01*
X133667750Y-92951548D01*
X133667749Y-91331803D01*
X133661341Y-91272192D01*
X133630911Y-91190606D01*
X133611047Y-91137346D01*
X133611043Y-91137339D01*
X133536350Y-91037563D01*
X133524796Y-91022129D01*
X133456416Y-90970940D01*
X133414547Y-90915008D01*
X133409563Y-90845316D01*
X133443048Y-90783993D01*
X133456411Y-90772413D01*
X133524796Y-90721221D01*
X133611046Y-90606006D01*
X133661341Y-90471158D01*
X133667750Y-90411548D01*
X133667749Y-88791803D01*
X133661341Y-88732192D01*
X133656394Y-88718929D01*
X133611047Y-88597346D01*
X133611043Y-88597339D01*
X133524797Y-88482130D01*
X133524794Y-88482127D01*
X133409585Y-88395881D01*
X133409578Y-88395877D01*
X133274732Y-88345583D01*
X133274733Y-88345583D01*
X133215133Y-88339176D01*
X133215131Y-88339175D01*
X133215123Y-88339175D01*
X133215114Y-88339175D01*
X130119379Y-88339175D01*
X130119373Y-88339176D01*
X130059766Y-88345583D01*
X129924921Y-88395877D01*
X129924914Y-88395881D01*
X129809705Y-88482127D01*
X129809702Y-88482130D01*
X129723456Y-88597339D01*
X129723452Y-88597346D01*
X129673158Y-88732192D01*
X129670295Y-88758828D01*
X129666751Y-88791798D01*
X129666750Y-88791810D01*
X129666750Y-88877175D01*
X129647065Y-88944214D01*
X129594261Y-88989969D01*
X129542750Y-89001175D01*
X126182272Y-89001175D01*
X126115233Y-88981490D01*
X126113381Y-88980277D01*
X125979185Y-88890609D01*
X125979172Y-88890602D01*
X125833501Y-88830264D01*
X125833489Y-88830261D01*
X125678845Y-88799500D01*
X125678842Y-88799500D01*
X125521158Y-88799500D01*
X125521155Y-88799500D01*
X125366510Y-88830261D01*
X125366498Y-88830264D01*
X125220827Y-88890602D01*
X125220814Y-88890609D01*
X125086619Y-88980277D01*
X125019942Y-89001155D01*
X125017728Y-89001175D01*
X124721997Y-89001175D01*
X124654958Y-88981490D01*
X124634316Y-88964856D01*
X124217340Y-88547880D01*
X124217338Y-88547877D01*
X124098467Y-88429006D01*
X124098466Y-88429005D01*
X124011654Y-88378885D01*
X124011654Y-88378884D01*
X124011650Y-88378883D01*
X123961535Y-88349948D01*
X123808807Y-88309024D01*
X123650693Y-88309024D01*
X123643097Y-88309024D01*
X123643081Y-88309025D01*
X122210466Y-88309025D01*
X122143427Y-88289340D01*
X122097672Y-88236536D01*
X122092514Y-88220952D01*
X122092129Y-88221080D01*
X122073945Y-88166206D01*
X122034814Y-88048116D01*
X121956112Y-87920519D01*
X121937673Y-87853129D01*
X121956113Y-87790329D01*
X122034814Y-87662734D01*
X122062595Y-87578895D01*
X122102368Y-87521451D01*
X122166884Y-87494628D01*
X122180301Y-87493900D01*
X124579706Y-87493900D01*
X124579722Y-87493901D01*
X124587318Y-87493901D01*
X124745429Y-87493901D01*
X124745432Y-87493901D01*
X124898160Y-87452977D01*
X124965810Y-87413919D01*
X125035091Y-87373920D01*
X125146895Y-87262116D01*
X125146895Y-87262114D01*
X125157096Y-87251914D01*
X125157099Y-87251909D01*
X125361517Y-87047491D01*
X125422839Y-87014009D01*
X125449197Y-87011175D01*
X127032795Y-87011175D01*
X127099834Y-87030860D01*
X127132060Y-87060862D01*
X127212429Y-87168221D01*
X127228745Y-87180435D01*
X127327639Y-87254468D01*
X127327646Y-87254472D01*
X127462492Y-87304766D01*
X127462491Y-87304766D01*
X127469419Y-87305510D01*
X127522102Y-87311175D01*
X128617847Y-87311174D01*
X128677458Y-87304766D01*
X128812306Y-87254471D01*
X128927521Y-87168221D01*
X129013771Y-87053006D01*
X129064066Y-86918158D01*
X129070475Y-86858548D01*
X129070474Y-85962803D01*
X129064527Y-85907478D01*
X129064066Y-85903191D01*
X129013772Y-85768346D01*
X129013768Y-85768339D01*
X128927522Y-85653130D01*
X128927519Y-85653127D01*
X128812310Y-85566881D01*
X128812303Y-85566877D01*
X128704287Y-85526590D01*
X128648353Y-85484719D01*
X128623936Y-85419255D01*
X128638788Y-85350982D01*
X128688193Y-85301576D01*
X128704288Y-85294226D01*
X128812059Y-85254030D01*
X128812068Y-85254025D01*
X128927162Y-85167865D01*
X128927165Y-85167862D01*
X129013325Y-85052768D01*
X129013329Y-85052761D01*
X129063571Y-84918054D01*
X129063573Y-84918047D01*
X129069974Y-84858519D01*
X129069975Y-84858502D01*
X129069975Y-84660675D01*
X127069975Y-84660675D01*
X127069975Y-84858519D01*
X127076376Y-84918047D01*
X127076378Y-84918054D01*
X127126620Y-85052761D01*
X127126624Y-85052768D01*
X127212784Y-85167862D01*
X127212787Y-85167865D01*
X127327881Y-85254025D01*
X127327888Y-85254029D01*
X127435662Y-85294226D01*
X127491596Y-85336097D01*
X127516013Y-85401561D01*
X127501162Y-85469834D01*
X127451757Y-85519240D01*
X127435662Y-85526590D01*
X127327646Y-85566877D01*
X127327639Y-85566881D01*
X127212431Y-85653127D01*
X127212430Y-85653128D01*
X127212429Y-85653129D01*
X127132062Y-85760486D01*
X127076128Y-85802357D01*
X127032795Y-85810175D01*
X125070042Y-85810175D01*
X124917314Y-85851098D01*
X124917313Y-85851098D01*
X124895429Y-85863732D01*
X124895430Y-85863733D01*
X124780387Y-85930152D01*
X124780382Y-85930156D01*
X124668578Y-86041961D01*
X124453959Y-86256581D01*
X124392636Y-86290066D01*
X124366278Y-86292900D01*
X122180301Y-86292900D01*
X122113262Y-86273215D01*
X122067507Y-86220411D01*
X122062595Y-86207904D01*
X122034814Y-86124066D01*
X121942712Y-85974744D01*
X121818656Y-85850688D01*
X121694055Y-85773834D01*
X121669336Y-85758587D01*
X121669331Y-85758585D01*
X121667862Y-85758098D01*
X121502797Y-85703401D01*
X121502795Y-85703400D01*
X121400010Y-85692900D01*
X120599998Y-85692900D01*
X120599980Y-85692901D01*
X120497203Y-85703400D01*
X120497200Y-85703401D01*
X120330668Y-85758585D01*
X120330663Y-85758587D01*
X120181342Y-85850689D01*
X120087681Y-85944351D01*
X120026358Y-85977836D01*
X119956666Y-85972852D01*
X119912319Y-85944351D01*
X119818657Y-85850689D01*
X119818656Y-85850688D01*
X119694055Y-85773834D01*
X119669336Y-85758587D01*
X119669331Y-85758585D01*
X119667862Y-85758098D01*
X119502797Y-85703401D01*
X119502795Y-85703400D01*
X119400010Y-85692900D01*
X118599998Y-85692900D01*
X118599980Y-85692901D01*
X118497203Y-85703400D01*
X118497200Y-85703401D01*
X118330668Y-85758585D01*
X118330663Y-85758587D01*
X118181342Y-85850689D01*
X118057289Y-85974742D01*
X117965187Y-86124063D01*
X117965186Y-86124066D01*
X117940009Y-86200047D01*
X117937405Y-86207904D01*
X117897632Y-86265349D01*
X117833116Y-86292172D01*
X117819699Y-86292900D01*
X117006044Y-86292900D01*
X117006028Y-86292899D01*
X116998432Y-86292899D01*
X116840318Y-86292899D01*
X116732962Y-86321665D01*
X116687585Y-86333824D01*
X116687584Y-86333825D01*
X116637471Y-86362759D01*
X116637470Y-86362760D01*
X116594064Y-86387820D01*
X116550660Y-86412879D01*
X116550657Y-86412881D01*
X115554096Y-87409443D01*
X115492773Y-87442928D01*
X115423081Y-87437944D01*
X115367148Y-87396072D01*
X115360876Y-87386859D01*
X115317870Y-87317135D01*
X115301037Y-87289844D01*
X115176981Y-87165788D01*
X115173667Y-87163743D01*
X115171871Y-87161748D01*
X115171314Y-87161307D01*
X115171389Y-87161211D01*
X115126943Y-87111797D01*
X115115722Y-87042834D01*
X115143565Y-86978752D01*
X115173673Y-86952665D01*
X115176667Y-86950818D01*
X115300640Y-86826845D01*
X115392681Y-86677624D01*
X115392683Y-86677619D01*
X115447830Y-86511197D01*
X115447831Y-86511190D01*
X115458324Y-86408486D01*
X115458325Y-86408473D01*
X115458325Y-86271000D01*
X113667450Y-86271000D01*
X113633919Y-86304531D01*
X113572596Y-86338016D01*
X113546238Y-86340850D01*
X111087451Y-86340850D01*
X111087451Y-86478336D01*
X111097944Y-86581047D01*
X111153091Y-86747469D01*
X111153093Y-86747474D01*
X111245134Y-86896695D01*
X111341926Y-86993487D01*
X111375411Y-87054810D01*
X111370427Y-87124502D01*
X111328555Y-87180435D01*
X111263091Y-87204852D01*
X111210912Y-87197350D01*
X111116561Y-87162160D01*
X111116560Y-87162159D01*
X111116558Y-87162159D01*
X111056948Y-87155750D01*
X111056938Y-87155750D01*
X110361204Y-87155750D01*
X110361198Y-87155751D01*
X110301591Y-87162158D01*
X110166746Y-87212452D01*
X110166739Y-87212456D01*
X110051530Y-87298702D01*
X110051527Y-87298705D01*
X109965281Y-87413914D01*
X109965279Y-87413919D01*
X109914983Y-87548767D01*
X109908576Y-87608366D01*
X109908575Y-87608385D01*
X109908575Y-88006152D01*
X109888890Y-88073191D01*
X109872256Y-88093833D01*
X109646158Y-88319931D01*
X109584835Y-88353416D01*
X109558477Y-88356250D01*
X108933075Y-88356250D01*
X108866036Y-88336565D01*
X108820281Y-88283761D01*
X108809075Y-88232250D01*
X108809075Y-88106250D01*
X108683075Y-88106250D01*
X108616036Y-88086565D01*
X108570281Y-88033761D01*
X108559075Y-87982250D01*
X108559075Y-87856250D01*
X109059075Y-87856250D01*
X109609075Y-87856250D01*
X109609075Y-87608422D01*
X109609074Y-87608405D01*
X109602673Y-87548877D01*
X109602671Y-87548870D01*
X109552429Y-87414163D01*
X109552425Y-87414156D01*
X109466265Y-87299062D01*
X109466262Y-87299059D01*
X109351168Y-87212899D01*
X109351161Y-87212895D01*
X109216454Y-87162653D01*
X109216447Y-87162651D01*
X109156919Y-87156250D01*
X109059075Y-87156250D01*
X109059075Y-87856250D01*
X108559075Y-87856250D01*
X108559075Y-87196150D01*
X108414156Y-87151028D01*
X108405528Y-87145282D01*
X108395332Y-87143426D01*
X108376944Y-87126249D01*
X108356000Y-87112303D01*
X108351848Y-87102806D01*
X108344274Y-87095731D01*
X108331739Y-87063638D01*
X108331611Y-87063681D01*
X108330797Y-87061225D01*
X108329766Y-87058585D01*
X108329480Y-87057252D01*
X108274333Y-86890830D01*
X108274331Y-86890825D01*
X108182290Y-86741604D01*
X108058319Y-86617633D01*
X108058316Y-86617631D01*
X108055314Y-86615779D01*
X108053688Y-86613971D01*
X108052652Y-86613152D01*
X108052792Y-86612974D01*
X108008592Y-86563830D01*
X107997372Y-86494867D01*
X108025218Y-86430786D01*
X108055319Y-86404704D01*
X108058631Y-86402662D01*
X108182687Y-86278606D01*
X108274789Y-86129284D01*
X108320365Y-85991744D01*
X108360136Y-85934301D01*
X108424652Y-85907478D01*
X108438070Y-85906750D01*
X108894934Y-85906750D01*
X108961973Y-85926435D01*
X109007728Y-85979239D01*
X109011105Y-85987390D01*
X109015279Y-85998581D01*
X109015280Y-85998582D01*
X109015281Y-85998585D01*
X109101527Y-86113794D01*
X109101530Y-86113797D01*
X109216739Y-86200043D01*
X109216746Y-86200047D01*
X109237812Y-86207904D01*
X109351592Y-86250341D01*
X109411202Y-86256750D01*
X110106947Y-86256749D01*
X110166558Y-86250341D01*
X110301406Y-86200046D01*
X110416621Y-86113796D01*
X110502871Y-85998581D01*
X110553166Y-85863733D01*
X110559575Y-85804123D01*
X110559575Y-85703363D01*
X111087450Y-85703363D01*
X111087450Y-85840850D01*
X112062450Y-85840850D01*
X112062450Y-85003350D01*
X112562450Y-85003350D01*
X112562450Y-85840850D01*
X112878325Y-85840850D01*
X112911856Y-85807319D01*
X112973179Y-85773834D01*
X112999537Y-85771000D01*
X113983325Y-85771000D01*
X114483325Y-85771000D01*
X115458324Y-85771000D01*
X115458324Y-85633528D01*
X115458323Y-85633513D01*
X115447830Y-85530802D01*
X115392683Y-85364380D01*
X115392681Y-85364375D01*
X115300640Y-85215154D01*
X115176670Y-85091184D01*
X115027449Y-84999143D01*
X115027444Y-84999141D01*
X114861022Y-84943994D01*
X114861015Y-84943993D01*
X114758311Y-84933500D01*
X114483325Y-84933500D01*
X114483325Y-85771000D01*
X113983325Y-85771000D01*
X113983325Y-84933500D01*
X113708354Y-84933500D01*
X113708337Y-84933501D01*
X113605627Y-84943994D01*
X113439205Y-84999141D01*
X113439200Y-84999143D01*
X113283834Y-85094975D01*
X113282521Y-85092846D01*
X113228633Y-85114560D01*
X113159996Y-85101490D01*
X113151474Y-85096687D01*
X113106578Y-85068996D01*
X113106569Y-85068991D01*
X112940147Y-85013844D01*
X112940140Y-85013843D01*
X112837436Y-85003350D01*
X112562450Y-85003350D01*
X112062450Y-85003350D01*
X111787479Y-85003350D01*
X111787462Y-85003351D01*
X111684752Y-85013844D01*
X111518330Y-85068991D01*
X111518325Y-85068993D01*
X111369104Y-85161034D01*
X111245134Y-85285004D01*
X111153093Y-85434225D01*
X111153091Y-85434230D01*
X111097944Y-85600652D01*
X111097943Y-85600659D01*
X111087450Y-85703363D01*
X110559575Y-85703363D01*
X110559574Y-85301576D01*
X110559574Y-84808379D01*
X110559573Y-84808373D01*
X110553166Y-84748766D01*
X110502872Y-84613921D01*
X110502868Y-84613914D01*
X110416622Y-84498705D01*
X110416619Y-84498702D01*
X110301410Y-84412456D01*
X110301403Y-84412452D01*
X110166561Y-84362160D01*
X110166560Y-84362159D01*
X110166558Y-84362159D01*
X110106948Y-84355750D01*
X110106938Y-84355750D01*
X109411204Y-84355750D01*
X109411198Y-84355751D01*
X109351591Y-84362158D01*
X109216746Y-84412452D01*
X109216739Y-84412456D01*
X109101530Y-84498702D01*
X109101527Y-84498705D01*
X109015281Y-84613914D01*
X109015279Y-84613918D01*
X109015279Y-84613919D01*
X109011114Y-84625084D01*
X108969246Y-84681016D01*
X108903782Y-84705434D01*
X108894934Y-84705750D01*
X108273505Y-84705750D01*
X108206466Y-84686065D01*
X108185824Y-84669431D01*
X108058632Y-84542239D01*
X108058631Y-84542238D01*
X107942051Y-84470331D01*
X107909311Y-84450137D01*
X107909306Y-84450135D01*
X107907837Y-84449648D01*
X107742772Y-84394951D01*
X107742770Y-84394950D01*
X107639985Y-84384450D01*
X106589973Y-84384450D01*
X106589955Y-84384451D01*
X106487178Y-84394950D01*
X106487175Y-84394951D01*
X106320638Y-84450137D01*
X106317790Y-84451894D01*
X106315562Y-84452503D01*
X106314090Y-84453190D01*
X106313972Y-84452938D01*
X106250397Y-84470331D01*
X106187603Y-84451891D01*
X106128134Y-84415211D01*
X105961597Y-84360026D01*
X105961595Y-84360025D01*
X105858810Y-84349525D01*
X104808798Y-84349525D01*
X104808780Y-84349526D01*
X104706003Y-84360025D01*
X104706000Y-84360026D01*
X104539468Y-84415210D01*
X104539463Y-84415212D01*
X104390142Y-84507314D01*
X104266089Y-84631367D01*
X104173987Y-84780688D01*
X104173986Y-84780691D01*
X104118801Y-84947228D01*
X104118801Y-84947229D01*
X104118800Y-84947229D01*
X104108300Y-85050008D01*
X104108300Y-85649977D01*
X104088615Y-85717016D01*
X104071981Y-85737658D01*
X103598907Y-86210731D01*
X103537584Y-86244216D01*
X103511226Y-86247050D01*
X102811323Y-86247050D01*
X102811305Y-86247051D01*
X102708528Y-86257550D01*
X102708525Y-86257551D01*
X102541993Y-86312735D01*
X102541988Y-86312737D01*
X102392667Y-86404839D01*
X102268614Y-86528892D01*
X102176512Y-86678213D01*
X102176511Y-86678216D01*
X102121326Y-86844753D01*
X102121326Y-86844754D01*
X102121325Y-86844754D01*
X102110825Y-86947533D01*
X102110825Y-87747551D01*
X102110826Y-87747569D01*
X102121325Y-87850346D01*
X102121326Y-87850349D01*
X102176510Y-88016881D01*
X102176512Y-88016886D01*
X102268614Y-88166207D01*
X102362276Y-88259869D01*
X102395761Y-88321192D01*
X102390777Y-88390884D01*
X102362276Y-88435231D01*
X102268614Y-88528892D01*
X102176512Y-88678213D01*
X102176510Y-88678218D01*
X102163896Y-88716284D01*
X102121326Y-88844753D01*
X102121326Y-88844754D01*
X102121325Y-88844754D01*
X102110825Y-88947533D01*
X102110825Y-89747551D01*
X102110826Y-89747569D01*
X102121325Y-89850346D01*
X102121326Y-89850349D01*
X102161104Y-89970388D01*
X102176511Y-90016884D01*
X102268613Y-90166206D01*
X102392669Y-90290262D01*
X102501922Y-90357649D01*
X102548646Y-90409597D01*
X102560825Y-90463188D01*
X102560825Y-91025500D01*
X102541140Y-91092539D01*
X102488336Y-91138294D01*
X102436825Y-91149500D01*
X100504604Y-91149500D01*
X100457155Y-91140062D01*
X100433497Y-91130263D01*
X100433493Y-91130262D01*
X100433488Y-91130260D01*
X100278845Y-91099500D01*
X100278842Y-91099500D01*
X100121158Y-91099500D01*
X100121155Y-91099500D01*
X99966510Y-91130261D01*
X99966498Y-91130264D01*
X99820827Y-91190602D01*
X99820814Y-91190609D01*
X99689711Y-91278210D01*
X99689707Y-91278213D01*
X99578213Y-91389707D01*
X99578210Y-91389711D01*
X99490609Y-91520814D01*
X99490602Y-91520827D01*
X99430264Y-91666498D01*
X99430261Y-91666510D01*
X99399500Y-91821153D01*
X99399500Y-91927694D01*
X99379815Y-91994733D01*
X99363181Y-92015375D01*
X98867801Y-92510756D01*
X98806478Y-92544241D01*
X98780120Y-92547075D01*
X95129154Y-92547075D01*
X95129148Y-92547076D01*
X95069541Y-92553483D01*
X94934696Y-92603777D01*
X94934689Y-92603781D01*
X94819480Y-92690027D01*
X94819477Y-92690030D01*
X94733231Y-92805239D01*
X94733227Y-92805246D01*
X94691736Y-92916492D01*
X94682934Y-92940092D01*
X94676525Y-92999702D01*
X94676525Y-92999709D01*
X94676525Y-92999710D01*
X94676525Y-93595445D01*
X94676526Y-93595451D01*
X94682933Y-93655054D01*
X94684717Y-93662601D01*
X94683254Y-93662946D01*
X94687610Y-93723946D01*
X94683198Y-93738971D01*
X94682933Y-93740092D01*
X94676526Y-93799692D01*
X94676525Y-93799711D01*
X94676525Y-94395445D01*
X94676526Y-94395451D01*
X94682933Y-94455054D01*
X94684717Y-94462601D01*
X94683254Y-94462946D01*
X94687610Y-94523946D01*
X94683198Y-94538971D01*
X94682933Y-94540092D01*
X94676526Y-94599692D01*
X94676525Y-94599711D01*
X94676525Y-95195445D01*
X94676526Y-95195451D01*
X94682933Y-95255054D01*
X94684717Y-95262601D01*
X94683254Y-95262946D01*
X94687610Y-95323946D01*
X94683198Y-95338971D01*
X94682933Y-95340092D01*
X94676526Y-95399692D01*
X94676525Y-95399711D01*
X94676525Y-95995445D01*
X94676526Y-95995451D01*
X94682934Y-96055062D01*
X94684717Y-96062606D01*
X94683463Y-96062902D01*
X94687881Y-96124644D01*
X94683889Y-96138239D01*
X94683426Y-96140199D01*
X94677025Y-96199730D01*
X94677025Y-96247575D01*
X94714331Y-96247575D01*
X94781370Y-96267260D01*
X94813595Y-96297261D01*
X94819479Y-96305121D01*
X94819480Y-96305121D01*
X94819481Y-96305123D01*
X94934689Y-96391368D01*
X94934696Y-96391372D01*
X95069542Y-96441666D01*
X95069541Y-96441666D01*
X95076469Y-96442410D01*
X95129152Y-96448075D01*
X97224897Y-96448074D01*
X97284508Y-96441666D01*
X97419356Y-96391371D01*
X97534571Y-96305121D01*
X97540453Y-96297262D01*
X97596386Y-96255393D01*
X97639719Y-96247575D01*
X97677025Y-96247575D01*
X97677025Y-96199747D01*
X97677024Y-96199730D01*
X97670623Y-96140202D01*
X97668839Y-96132651D01*
X97670484Y-96132262D01*
X97666168Y-96071936D01*
X97671083Y-96055194D01*
X97671114Y-96055064D01*
X97671114Y-96055063D01*
X97671116Y-96055058D01*
X97677525Y-95995448D01*
X97677524Y-95622074D01*
X97697208Y-95555036D01*
X97750012Y-95509281D01*
X97801524Y-95498075D01*
X99557428Y-95498075D01*
X99565045Y-95500311D01*
X99572882Y-95499042D01*
X99598089Y-95510014D01*
X99624467Y-95517760D01*
X99631297Y-95524469D01*
X99636945Y-95526928D01*
X99660530Y-95553185D01*
X99699077Y-95610875D01*
X99719955Y-95677552D01*
X99719975Y-95679765D01*
X99719975Y-96392055D01*
X99719974Y-96392073D01*
X99719974Y-96557779D01*
X99719973Y-96557779D01*
X99731686Y-96601490D01*
X99753416Y-96682588D01*
X99760899Y-96710512D01*
X99778590Y-96741153D01*
X99778591Y-96741155D01*
X99839952Y-96847437D01*
X99839956Y-96847442D01*
X99958824Y-96966310D01*
X99958830Y-96966315D01*
X100448831Y-97456316D01*
X100482316Y-97517639D01*
X100485150Y-97543997D01*
X100485150Y-99369502D01*
X100465465Y-99436541D01*
X100448831Y-99457183D01*
X96159578Y-103746435D01*
X96098255Y-103779920D01*
X96028563Y-103774936D01*
X96015602Y-103769239D01*
X95974789Y-103748444D01*
X95974788Y-103748443D01*
X95974787Y-103748443D01*
X95772618Y-103682754D01*
X95772616Y-103682753D01*
X95772615Y-103682753D01*
X95611332Y-103657208D01*
X95562662Y-103649500D01*
X95350088Y-103649500D01*
X95301417Y-103657208D01*
X95140135Y-103682753D01*
X94937960Y-103748444D01*
X94748554Y-103844951D01*
X94576590Y-103969889D01*
X94462660Y-104083819D01*
X94401337Y-104117303D01*
X94331645Y-104112319D01*
X94275712Y-104070447D01*
X94258797Y-104039470D01*
X94209729Y-103907913D01*
X94209725Y-103907906D01*
X94123565Y-103792812D01*
X94123562Y-103792809D01*
X94008468Y-103706649D01*
X94008461Y-103706645D01*
X93873754Y-103656403D01*
X93873747Y-103656401D01*
X93814219Y-103650000D01*
X93166375Y-103650000D01*
X93166375Y-104566988D01*
X93109368Y-104534075D01*
X92982201Y-104500000D01*
X92850549Y-104500000D01*
X92723382Y-104534075D01*
X92666375Y-104566988D01*
X92666375Y-103650000D01*
X92018530Y-103650000D01*
X91959002Y-103656401D01*
X91958995Y-103656403D01*
X91824288Y-103706645D01*
X91824281Y-103706649D01*
X91709187Y-103792809D01*
X91709184Y-103792812D01*
X91623024Y-103907906D01*
X91623020Y-103907913D01*
X91572778Y-104042620D01*
X91572776Y-104042627D01*
X91566375Y-104102155D01*
X91566375Y-104750000D01*
X92483363Y-104750000D01*
X92450450Y-104807007D01*
X92416375Y-104934174D01*
X92416375Y-105065826D01*
X92450450Y-105192993D01*
X92483363Y-105250000D01*
X91566375Y-105250000D01*
X91566375Y-105875500D01*
X91546690Y-105942539D01*
X91493886Y-105988294D01*
X91442375Y-105999500D01*
X89624500Y-105999500D01*
X89557461Y-105979815D01*
X89511706Y-105927011D01*
X89500500Y-105875500D01*
X89500500Y-100956677D01*
X89520185Y-100889638D01*
X89572989Y-100843883D01*
X89642147Y-100833939D01*
X89667843Y-100840499D01*
X89669648Y-100841172D01*
X89669652Y-100841173D01*
X89729180Y-100847574D01*
X89729197Y-100847575D01*
X90377025Y-100847575D01*
X90877025Y-100847575D01*
X91524853Y-100847575D01*
X91524869Y-100847574D01*
X91584397Y-100841173D01*
X91584404Y-100841171D01*
X91719111Y-100790929D01*
X91719118Y-100790925D01*
X91834212Y-100704765D01*
X91834215Y-100704762D01*
X91920375Y-100589668D01*
X91920379Y-100589661D01*
X91970621Y-100454954D01*
X91970623Y-100454947D01*
X91977024Y-100395419D01*
X94727025Y-100395419D01*
X94733426Y-100454947D01*
X94733428Y-100454954D01*
X94783670Y-100589661D01*
X94783674Y-100589668D01*
X94869834Y-100704762D01*
X94869837Y-100704765D01*
X94984931Y-100790925D01*
X94984938Y-100790929D01*
X95119645Y-100841171D01*
X95119652Y-100841173D01*
X95179180Y-100847574D01*
X95179197Y-100847575D01*
X95827025Y-100847575D01*
X96327025Y-100847575D01*
X96974853Y-100847575D01*
X96974869Y-100847574D01*
X97034397Y-100841173D01*
X97034404Y-100841171D01*
X97169111Y-100790929D01*
X97169118Y-100790925D01*
X97284212Y-100704765D01*
X97284215Y-100704762D01*
X97370375Y-100589668D01*
X97370379Y-100589661D01*
X97420621Y-100454954D01*
X97420623Y-100454947D01*
X97427024Y-100395419D01*
X97427025Y-100395402D01*
X97427025Y-99597575D01*
X96327025Y-99597575D01*
X96327025Y-100847575D01*
X95827025Y-100847575D01*
X95827025Y-99597575D01*
X94727025Y-99597575D01*
X94727025Y-100395419D01*
X91977024Y-100395419D01*
X91977025Y-100395402D01*
X91977025Y-99597575D01*
X90877025Y-99597575D01*
X90877025Y-100847575D01*
X90377025Y-100847575D01*
X90377025Y-99097575D01*
X90877025Y-99097575D01*
X91977025Y-99097575D01*
X91977025Y-98299747D01*
X91977024Y-98299730D01*
X94727025Y-98299730D01*
X94727025Y-99097575D01*
X95827025Y-99097575D01*
X96327025Y-99097575D01*
X97427025Y-99097575D01*
X97427025Y-98299747D01*
X97427024Y-98299730D01*
X97420623Y-98240202D01*
X97420621Y-98240195D01*
X97370379Y-98105488D01*
X97370375Y-98105481D01*
X97284215Y-97990387D01*
X97284212Y-97990384D01*
X97169118Y-97904224D01*
X97169111Y-97904220D01*
X97034404Y-97853978D01*
X97034397Y-97853976D01*
X96974869Y-97847575D01*
X96327025Y-97847575D01*
X96327025Y-99097575D01*
X95827025Y-99097575D01*
X95827025Y-97847575D01*
X95179180Y-97847575D01*
X95119652Y-97853976D01*
X95119645Y-97853978D01*
X94984938Y-97904220D01*
X94984931Y-97904224D01*
X94869837Y-97990384D01*
X94869834Y-97990387D01*
X94783674Y-98105481D01*
X94783670Y-98105488D01*
X94733428Y-98240195D01*
X94733426Y-98240202D01*
X94727025Y-98299730D01*
X91977024Y-98299730D01*
X91970623Y-98240202D01*
X91970621Y-98240195D01*
X91920379Y-98105488D01*
X91920375Y-98105481D01*
X91834215Y-97990387D01*
X91834212Y-97990384D01*
X91719118Y-97904224D01*
X91719111Y-97904220D01*
X91584404Y-97853978D01*
X91584397Y-97853976D01*
X91524869Y-97847575D01*
X90877025Y-97847575D01*
X90877025Y-99097575D01*
X90377025Y-99097575D01*
X90377025Y-97847575D01*
X89729180Y-97847575D01*
X89669652Y-97853976D01*
X89669641Y-97853979D01*
X89667832Y-97854654D01*
X89666330Y-97854761D01*
X89662095Y-97855762D01*
X89661932Y-97855075D01*
X89598140Y-97859638D01*
X89536817Y-97826152D01*
X89503333Y-97764828D01*
X89500500Y-97738472D01*
X89500500Y-97171495D01*
X92726524Y-97171495D01*
X92755365Y-97316482D01*
X92755368Y-97316492D01*
X92811937Y-97453063D01*
X92811944Y-97453076D01*
X92894073Y-97575990D01*
X92894076Y-97575994D01*
X92998605Y-97680523D01*
X92998609Y-97680526D01*
X93121523Y-97762655D01*
X93121536Y-97762662D01*
X93258107Y-97819231D01*
X93258112Y-97819233D01*
X93258116Y-97819233D01*
X93258117Y-97819234D01*
X93403104Y-97848075D01*
X93403107Y-97848075D01*
X93550945Y-97848075D01*
X93648487Y-97828671D01*
X93695938Y-97819233D01*
X93832520Y-97762659D01*
X93955441Y-97680526D01*
X94059976Y-97575991D01*
X94142109Y-97453070D01*
X94198683Y-97316488D01*
X94213186Y-97243579D01*
X94227525Y-97171495D01*
X94227525Y-97023654D01*
X94198684Y-96878667D01*
X94198683Y-96878666D01*
X94198683Y-96878662D01*
X94164203Y-96795419D01*
X94677025Y-96795419D01*
X94683426Y-96854947D01*
X94683428Y-96854954D01*
X94733670Y-96989661D01*
X94733674Y-96989668D01*
X94819834Y-97104762D01*
X94819837Y-97104765D01*
X94934931Y-97190925D01*
X94934938Y-97190929D01*
X95069645Y-97241171D01*
X95069652Y-97241173D01*
X95129180Y-97247574D01*
X95129197Y-97247575D01*
X95927025Y-97247575D01*
X96427025Y-97247575D01*
X97224853Y-97247575D01*
X97224869Y-97247574D01*
X97284397Y-97241173D01*
X97284404Y-97241171D01*
X97419111Y-97190929D01*
X97419118Y-97190925D01*
X97534212Y-97104765D01*
X97534215Y-97104762D01*
X97620375Y-96989668D01*
X97620379Y-96989661D01*
X97670621Y-96854954D01*
X97670623Y-96854947D01*
X97677024Y-96795419D01*
X97677025Y-96795402D01*
X97677025Y-96747575D01*
X96427025Y-96747575D01*
X96427025Y-97247575D01*
X95927025Y-97247575D01*
X95927025Y-96747575D01*
X94677025Y-96747575D01*
X94677025Y-96795419D01*
X94164203Y-96795419D01*
X94158413Y-96781441D01*
X94142777Y-96743691D01*
X94142765Y-96743664D01*
X94142109Y-96742080D01*
X94142105Y-96742073D01*
X94059976Y-96619159D01*
X94059973Y-96619155D01*
X93955444Y-96514626D01*
X93955440Y-96514623D01*
X93832526Y-96432494D01*
X93832513Y-96432487D01*
X93695942Y-96375918D01*
X93695932Y-96375915D01*
X93550945Y-96347075D01*
X93550943Y-96347075D01*
X93403107Y-96347075D01*
X93403105Y-96347075D01*
X93258117Y-96375915D01*
X93258107Y-96375918D01*
X93121536Y-96432487D01*
X93121523Y-96432494D01*
X92998609Y-96514623D01*
X92998605Y-96514626D01*
X92894076Y-96619155D01*
X92894073Y-96619159D01*
X92811944Y-96742073D01*
X92811937Y-96742086D01*
X92755368Y-96878657D01*
X92755365Y-96878667D01*
X92726525Y-97023654D01*
X92726525Y-97023657D01*
X92726525Y-97171493D01*
X92726525Y-97171495D01*
X92726524Y-97171495D01*
X89500500Y-97171495D01*
X89500500Y-92771495D01*
X92726524Y-92771495D01*
X92755365Y-92916482D01*
X92755368Y-92916492D01*
X92811937Y-93053063D01*
X92811944Y-93053076D01*
X92894073Y-93175990D01*
X92894076Y-93175994D01*
X92998605Y-93280523D01*
X92998609Y-93280526D01*
X93121523Y-93362655D01*
X93121536Y-93362662D01*
X93256265Y-93418468D01*
X93258112Y-93419233D01*
X93258116Y-93419233D01*
X93258117Y-93419234D01*
X93403104Y-93448075D01*
X93403107Y-93448075D01*
X93550945Y-93448075D01*
X93664010Y-93425584D01*
X93695938Y-93419233D01*
X93818798Y-93368343D01*
X93832513Y-93362662D01*
X93832513Y-93362661D01*
X93832520Y-93362659D01*
X93955441Y-93280526D01*
X94059976Y-93175991D01*
X94142109Y-93053070D01*
X94198683Y-92916488D01*
X94219874Y-92809956D01*
X94227525Y-92771495D01*
X94227525Y-92623654D01*
X94198684Y-92478667D01*
X94198683Y-92478666D01*
X94198683Y-92478662D01*
X94189542Y-92456594D01*
X94142112Y-92342086D01*
X94142105Y-92342073D01*
X94059976Y-92219159D01*
X94059973Y-92219155D01*
X93955444Y-92114626D01*
X93955440Y-92114623D01*
X93832526Y-92032494D01*
X93832513Y-92032487D01*
X93695942Y-91975918D01*
X93695932Y-91975915D01*
X93550945Y-91947075D01*
X93550943Y-91947075D01*
X93403107Y-91947075D01*
X93403105Y-91947075D01*
X93258117Y-91975915D01*
X93258107Y-91975918D01*
X93121536Y-92032487D01*
X93121523Y-92032494D01*
X92998609Y-92114623D01*
X92998605Y-92114626D01*
X92894076Y-92219155D01*
X92894073Y-92219159D01*
X92811944Y-92342073D01*
X92811937Y-92342086D01*
X92755368Y-92478657D01*
X92755365Y-92478667D01*
X92726525Y-92623654D01*
X92726525Y-92623657D01*
X92726525Y-92771493D01*
X92726525Y-92771495D01*
X92726524Y-92771495D01*
X89500500Y-92771495D01*
X89500500Y-92056677D01*
X89520185Y-91989638D01*
X89572989Y-91943883D01*
X89642147Y-91933939D01*
X89667843Y-91940499D01*
X89669648Y-91941172D01*
X89669652Y-91941173D01*
X89729180Y-91947574D01*
X89729197Y-91947575D01*
X90377025Y-91947575D01*
X90877025Y-91947575D01*
X91524853Y-91947575D01*
X91524869Y-91947574D01*
X91584397Y-91941173D01*
X91584404Y-91941171D01*
X91719111Y-91890929D01*
X91719118Y-91890925D01*
X91834212Y-91804765D01*
X91834215Y-91804762D01*
X91920375Y-91689668D01*
X91920379Y-91689661D01*
X91970621Y-91554954D01*
X91970623Y-91554947D01*
X91977024Y-91495419D01*
X94727025Y-91495419D01*
X94733426Y-91554947D01*
X94733428Y-91554954D01*
X94783670Y-91689661D01*
X94783674Y-91689668D01*
X94869834Y-91804762D01*
X94869837Y-91804765D01*
X94984931Y-91890925D01*
X94984938Y-91890929D01*
X95119645Y-91941171D01*
X95119652Y-91941173D01*
X95179180Y-91947574D01*
X95179197Y-91947575D01*
X95827025Y-91947575D01*
X96327025Y-91947575D01*
X96974853Y-91947575D01*
X96974869Y-91947574D01*
X97034397Y-91941173D01*
X97034404Y-91941171D01*
X97169111Y-91890929D01*
X97169118Y-91890925D01*
X97284212Y-91804765D01*
X97284215Y-91804762D01*
X97370375Y-91689668D01*
X97370379Y-91689661D01*
X97420621Y-91554954D01*
X97420623Y-91554947D01*
X97427024Y-91495419D01*
X97427025Y-91495402D01*
X97427025Y-90697575D01*
X96327025Y-90697575D01*
X96327025Y-91947575D01*
X95827025Y-91947575D01*
X95827025Y-90697575D01*
X94727025Y-90697575D01*
X94727025Y-91495419D01*
X91977024Y-91495419D01*
X91977025Y-91495402D01*
X91977025Y-90697575D01*
X90877025Y-90697575D01*
X90877025Y-91947575D01*
X90377025Y-91947575D01*
X90377025Y-90197575D01*
X90877025Y-90197575D01*
X91977025Y-90197575D01*
X91977025Y-89399747D01*
X91977024Y-89399730D01*
X94727025Y-89399730D01*
X94727025Y-90197575D01*
X95827025Y-90197575D01*
X96327025Y-90197575D01*
X97427025Y-90197575D01*
X97427025Y-89399747D01*
X97427024Y-89399730D01*
X97420623Y-89340202D01*
X97420621Y-89340195D01*
X97370379Y-89205488D01*
X97370375Y-89205481D01*
X97284215Y-89090387D01*
X97284212Y-89090384D01*
X97169118Y-89004224D01*
X97169111Y-89004220D01*
X97034404Y-88953978D01*
X97034397Y-88953976D01*
X96974869Y-88947575D01*
X96327025Y-88947575D01*
X96327025Y-90197575D01*
X95827025Y-90197575D01*
X95827025Y-88947575D01*
X95179180Y-88947575D01*
X95119652Y-88953976D01*
X95119645Y-88953978D01*
X94984938Y-89004220D01*
X94984931Y-89004224D01*
X94869837Y-89090384D01*
X94869834Y-89090387D01*
X94783674Y-89205481D01*
X94783670Y-89205488D01*
X94733428Y-89340195D01*
X94733426Y-89340202D01*
X94727025Y-89399730D01*
X91977024Y-89399730D01*
X91970623Y-89340202D01*
X91970621Y-89340195D01*
X91920379Y-89205488D01*
X91920375Y-89205481D01*
X91834215Y-89090387D01*
X91834212Y-89090384D01*
X91719118Y-89004224D01*
X91719111Y-89004220D01*
X91584404Y-88953978D01*
X91584397Y-88953976D01*
X91524869Y-88947575D01*
X90877025Y-88947575D01*
X90877025Y-90197575D01*
X90377025Y-90197575D01*
X90377025Y-88947575D01*
X89729180Y-88947575D01*
X89669652Y-88953976D01*
X89669641Y-88953979D01*
X89667832Y-88954654D01*
X89666330Y-88954761D01*
X89662095Y-88955762D01*
X89661932Y-88955075D01*
X89598140Y-88959638D01*
X89536817Y-88926152D01*
X89503333Y-88864828D01*
X89500500Y-88838472D01*
X89500500Y-83624500D01*
X89520185Y-83557461D01*
X89572989Y-83511706D01*
X89624500Y-83500500D01*
X127079589Y-83500500D01*
X127146628Y-83520185D01*
G37*
%TD.AperFunction*%
%TA.AperFunction,Conductor*%
G36*
X109352151Y-96682588D02*
G01*
X109392680Y-96739501D01*
X109399500Y-96780059D01*
X109399500Y-100316277D01*
X109379815Y-100383316D01*
X109363181Y-100403958D01*
X109062180Y-100704959D01*
X109000857Y-100738444D01*
X108931165Y-100733460D01*
X108875232Y-100691588D01*
X108850815Y-100626124D01*
X108850499Y-100617278D01*
X108850499Y-100271054D01*
X108850498Y-100271048D01*
X108844091Y-100211441D01*
X108793797Y-100076595D01*
X108793796Y-100076594D01*
X108780053Y-100058236D01*
X108755635Y-99992775D01*
X108770485Y-99924501D01*
X108780050Y-99909616D01*
X108793796Y-99891256D01*
X108796184Y-99884855D01*
X108810556Y-99846319D01*
X108844091Y-99756408D01*
X108850500Y-99696798D01*
X108850499Y-99001053D01*
X108844091Y-98941442D01*
X108807982Y-98844628D01*
X108793797Y-98806595D01*
X108793796Y-98806594D01*
X108791424Y-98803425D01*
X108779741Y-98787819D01*
X108755323Y-98722357D01*
X108770173Y-98654084D01*
X108779742Y-98639195D01*
X108793351Y-98621016D01*
X108843597Y-98486301D01*
X108843598Y-98486297D01*
X108849999Y-98426769D01*
X108850000Y-98426752D01*
X108850000Y-98328925D01*
X106350000Y-98328925D01*
X106350000Y-98426769D01*
X106356401Y-98486297D01*
X106356402Y-98486301D01*
X106391757Y-98581091D01*
X106393946Y-98611701D01*
X106398313Y-98642072D01*
X106396415Y-98646227D01*
X106396741Y-98650783D01*
X106382037Y-98677709D01*
X106369288Y-98705628D01*
X106365444Y-98708098D01*
X106363256Y-98712106D01*
X106336328Y-98726809D01*
X106310510Y-98743402D01*
X106304309Y-98744293D01*
X106301933Y-98745591D01*
X106275575Y-98748425D01*
X106255051Y-98748425D01*
X106188012Y-98728740D01*
X106142257Y-98675936D01*
X106140490Y-98671877D01*
X106087647Y-98544302D01*
X106087640Y-98544289D01*
X106000039Y-98413186D01*
X106000036Y-98413182D01*
X105888542Y-98301688D01*
X105888538Y-98301685D01*
X105757435Y-98214084D01*
X105757422Y-98214077D01*
X105611751Y-98153739D01*
X105611739Y-98153736D01*
X105457095Y-98122975D01*
X105457092Y-98122975D01*
X105299408Y-98122975D01*
X105299405Y-98122975D01*
X105144760Y-98153736D01*
X105144748Y-98153739D01*
X104999077Y-98214077D01*
X104999064Y-98214084D01*
X104867961Y-98301685D01*
X104867957Y-98301688D01*
X104756463Y-98413182D01*
X104756460Y-98413186D01*
X104668859Y-98544289D01*
X104668852Y-98544302D01*
X104608514Y-98689973D01*
X104608511Y-98689985D01*
X104577750Y-98844628D01*
X104577750Y-99002321D01*
X104608511Y-99156964D01*
X104608514Y-99156976D01*
X104668852Y-99302647D01*
X104668859Y-99302660D01*
X104756851Y-99434348D01*
X104762501Y-99452394D01*
X104772725Y-99468301D01*
X104777177Y-99499262D01*
X104777729Y-99501025D01*
X104777749Y-99503235D01*
X104777749Y-99526407D01*
X104777749Y-99526409D01*
X104777750Y-99536403D01*
X104777750Y-100605280D01*
X104777749Y-100605298D01*
X104777749Y-100640550D01*
X104758064Y-100707589D01*
X104705260Y-100753344D01*
X104653749Y-100764550D01*
X102473439Y-100764550D01*
X102449343Y-100771006D01*
X102449344Y-100771007D01*
X102320714Y-100805473D01*
X102320713Y-100805474D01*
X102307981Y-100812825D01*
X102240080Y-100829295D01*
X102174054Y-100806441D01*
X102130865Y-100751519D01*
X102124226Y-100681965D01*
X102156244Y-100619864D01*
X102158261Y-100617797D01*
X102422056Y-100354003D01*
X102422061Y-100353999D01*
X102432264Y-100343795D01*
X102432266Y-100343795D01*
X102544070Y-100231991D01*
X102623127Y-100095059D01*
X102653084Y-99983256D01*
X102664050Y-99942333D01*
X102664050Y-99784218D01*
X102664050Y-97533425D01*
X102683735Y-97466386D01*
X102736539Y-97420631D01*
X102788050Y-97409425D01*
X106275575Y-97409425D01*
X106342614Y-97429110D01*
X106388369Y-97481914D01*
X106398313Y-97551072D01*
X106391757Y-97576759D01*
X106356402Y-97671548D01*
X106356401Y-97671552D01*
X106350000Y-97731080D01*
X106350000Y-97828925D01*
X108850000Y-97828925D01*
X108850000Y-97731097D01*
X108849999Y-97731080D01*
X108843598Y-97671552D01*
X108843597Y-97671548D01*
X108793351Y-97536833D01*
X108779741Y-97518653D01*
X108755323Y-97453189D01*
X108770174Y-97384916D01*
X108779732Y-97370042D01*
X108793796Y-97351256D01*
X108844091Y-97216408D01*
X108850500Y-97156798D01*
X108850499Y-97113822D01*
X108859144Y-97084378D01*
X108865667Y-97054394D01*
X108869419Y-97049381D01*
X108870182Y-97046784D01*
X108886813Y-97026145D01*
X109009506Y-96903453D01*
X109009511Y-96903449D01*
X109019714Y-96893245D01*
X109019716Y-96893245D01*
X109131520Y-96781441D01*
X109168113Y-96718058D01*
X109218679Y-96669844D01*
X109287286Y-96656620D01*
X109352151Y-96682588D01*
G37*
%TD.AperFunction*%
%TA.AperFunction,Conductor*%
G36*
X106669552Y-87282210D02*
G01*
X106688464Y-87297450D01*
X106990975Y-87297450D01*
X107058014Y-87317135D01*
X107103769Y-87369939D01*
X107114975Y-87421450D01*
X107114975Y-87547450D01*
X107240975Y-87547450D01*
X107308014Y-87567135D01*
X107353769Y-87619939D01*
X107364975Y-87671450D01*
X107364975Y-88634949D01*
X107639947Y-88634949D01*
X107639961Y-88634948D01*
X107742670Y-88624456D01*
X107859037Y-88585895D01*
X107928866Y-88583493D01*
X107988908Y-88619224D01*
X108014224Y-88660268D01*
X108065720Y-88798336D01*
X108065724Y-88798343D01*
X108151884Y-88913437D01*
X108151887Y-88913440D01*
X108266981Y-88999600D01*
X108266988Y-88999604D01*
X108401695Y-89049846D01*
X108401702Y-89049848D01*
X108461230Y-89056249D01*
X108461247Y-89056250D01*
X108610478Y-89056250D01*
X108677517Y-89075935D01*
X108723272Y-89128739D01*
X108733216Y-89197897D01*
X108704191Y-89261453D01*
X108698159Y-89267931D01*
X108264634Y-89701456D01*
X108203311Y-89734941D01*
X108176953Y-89737775D01*
X105718290Y-89737775D01*
X105677369Y-89748739D01*
X105677369Y-89748740D01*
X105640101Y-89758726D01*
X105565564Y-89778698D01*
X105565559Y-89778701D01*
X105428640Y-89857750D01*
X105428632Y-89857756D01*
X105316828Y-89969561D01*
X105044459Y-90241931D01*
X104932658Y-90353731D01*
X104932656Y-90353734D01*
X104853598Y-90490664D01*
X104853598Y-90490665D01*
X104812674Y-90643393D01*
X104812674Y-90643395D01*
X104812674Y-90801504D01*
X104812673Y-90801504D01*
X104812674Y-90801507D01*
X104849455Y-90938775D01*
X104853598Y-90954234D01*
X104853598Y-90954235D01*
X104865912Y-90975563D01*
X104882525Y-91037563D01*
X104882525Y-92689034D01*
X104862840Y-92756073D01*
X104861627Y-92757925D01*
X104773634Y-92889614D01*
X104773627Y-92889627D01*
X104713289Y-93035298D01*
X104713286Y-93035310D01*
X104682525Y-93189953D01*
X104682525Y-93347640D01*
X104682771Y-93348877D01*
X104682711Y-93349539D01*
X104683122Y-93353705D01*
X104682332Y-93353782D01*
X104676548Y-93418468D01*
X104633688Y-93473648D01*
X104567799Y-93496897D01*
X104561155Y-93497075D01*
X101079766Y-93497075D01*
X101012727Y-93477390D01*
X101010875Y-93476177D01*
X100879185Y-93388184D01*
X100879172Y-93388177D01*
X100733501Y-93327839D01*
X100733489Y-93327836D01*
X100578845Y-93297075D01*
X100578842Y-93297075D01*
X100503580Y-93297075D01*
X100436541Y-93277390D01*
X100390786Y-93224586D01*
X100380842Y-93155428D01*
X100409867Y-93091872D01*
X100415899Y-93085394D01*
X100782950Y-92718343D01*
X100782950Y-92718342D01*
X100782952Y-92718341D01*
X100791459Y-92705608D01*
X100845071Y-92660804D01*
X100894561Y-92650500D01*
X102915720Y-92650500D01*
X103033802Y-92627011D01*
X103060713Y-92621658D01*
X103166347Y-92577902D01*
X103197288Y-92565087D01*
X103197288Y-92565086D01*
X103197295Y-92565084D01*
X103260142Y-92523091D01*
X103320216Y-92482952D01*
X103894277Y-91908890D01*
X103929900Y-91855576D01*
X103976409Y-91785970D01*
X104007771Y-91710256D01*
X104032984Y-91649387D01*
X104059065Y-91518267D01*
X104061825Y-91504393D01*
X104061825Y-90463188D01*
X104081510Y-90396149D01*
X104120726Y-90357650D01*
X104229981Y-90290262D01*
X104354037Y-90166206D01*
X104446139Y-90016884D01*
X104501324Y-89850347D01*
X104511825Y-89747559D01*
X104511824Y-88947542D01*
X104508340Y-88913440D01*
X104501324Y-88844753D01*
X104496522Y-88830261D01*
X104458722Y-88716191D01*
X104456321Y-88646368D01*
X104492052Y-88586325D01*
X104554572Y-88555132D01*
X104615433Y-88559485D01*
X104706102Y-88589530D01*
X104706109Y-88589531D01*
X104808819Y-88600024D01*
X105083799Y-88600024D01*
X105583800Y-88600024D01*
X105858772Y-88600024D01*
X105858786Y-88600023D01*
X105961497Y-88589530D01*
X106127918Y-88534383D01*
X106130965Y-88532504D01*
X106133350Y-88531850D01*
X106134470Y-88531329D01*
X106134559Y-88531520D01*
X106198356Y-88514056D01*
X106261172Y-88532496D01*
X106320850Y-88569306D01*
X106320855Y-88569308D01*
X106487277Y-88624455D01*
X106487284Y-88624456D01*
X106589994Y-88634949D01*
X106864974Y-88634949D01*
X106864975Y-88634948D01*
X106864975Y-87797450D01*
X105846262Y-87797450D01*
X105779223Y-87777765D01*
X105760311Y-87762525D01*
X105583800Y-87762525D01*
X105583800Y-88600024D01*
X105083799Y-88600024D01*
X105083800Y-88600023D01*
X105083800Y-87636525D01*
X105103485Y-87569486D01*
X105156289Y-87523731D01*
X105207800Y-87512525D01*
X105333800Y-87512525D01*
X105333800Y-87386525D01*
X105353485Y-87319486D01*
X105406289Y-87273731D01*
X105457800Y-87262525D01*
X106602513Y-87262525D01*
X106669552Y-87282210D01*
G37*
%TD.AperFunction*%
%TD*%
M02*
