M48
METRIC
T1C0.300
T2C1.000
%
G90
G05
T1
X100.035Y-99.104
X100.2Y-91.9
X100.32Y-95.1
X100.5Y-94.098
X103.626Y-99.07
X105.378Y-98.923
X105.483Y-93.269
X108.704Y-103.604
X109.871Y-94.253
X113.395Y-89.859
X115.491Y-90.764
X115.6Y-103.5
X116.5Y-94.707
X117.345Y-101.784
X119.0Y-96.685
X125.555Y-83.8
X125.6Y-89.6
X125.6Y-92.142
X125.6Y-96.685
X125.7Y-98.809
X126.5Y-93.3
X126.625Y-100.667
X126.879Y-94.866
X129.8Y-105.302
T2
X92.916Y-105.0
X95.456Y-105.0
X97.996Y-105.0
X100.536Y-105.0
X103.076Y-105.0
X105.616Y-105.0
X108.156Y-105.0
M30
